<?xml version="1.0" encoding="UTF-8" standalone="no"?><svg xmlns="http://www.w3.org/2000/svg" xmlns:xlink="http://www.w3.org/1999/xlink" fill="#000000" height="336.4" preserveAspectRatio="xMidYMid meet" version="1" viewBox="0.0 -2.2 417.0 336.4" width="417" zoomAndPan="magnify"><defs><clipPath id="a"><path d="M 104 302 L 157 302 L 157 334.269531 L 104 334.269531 Z M 104 302"/></clipPath><clipPath id="b"><path d="M 393 170 L 416.980469 170 L 416.980469 334 L 393 334 Z M 393 170"/></clipPath><clipPath id="c"><path d="M 174 324 L 255 324 L 255 334.269531 L 174 334.269531 Z M 174 324"/></clipPath><clipPath id="d"><path d="M 329 283 L 336 283 L 336 334.269531 L 329 334.269531 Z M 329 283"/></clipPath></defs><g><g id="change1_2"><path d="M 300.578125 308.835938 L 335.632812 296.820312 L 337.667969 328.769531 L 326.644531 329.460938 L 323.328125 322.320312 L 319.523438 330.167969 L 281.726562 332.433594 C 280.203125 332.523438 279.042969 331.097656 279.4375 329.625 C 280.660156 325.054688 284.609375 321.734375 289.324219 321.3125 C 293.816406 320.910156 297.636719 317.867188 299.03125 313.578125 L 300.578125 308.835938" fill="#35b276"/></g><g id="change2_2"><path d="M 310.125 214.230469 C 299.425781 217.960938 291.910156 227.625 290.933594 238.914062 L 284.59375 312.359375 L 339.53125 301.4375 L 300.480469 202.632812 L 331.539062 177.816406" fill="#ef3530"/></g><g id="change3_2"><path d="M 299.175781 313.921875 C 298.78125 313.921875 298.453125 313.613281 298.425781 313.214844 C 298.402344 312.804688 298.714844 312.449219 299.128906 312.421875 L 306.027344 311.996094 C 306.429688 311.976562 306.792969 312.289062 306.820312 312.699219 C 306.847656 313.113281 306.53125 313.46875 306.117188 313.496094 L 299.222656 313.917969 C 299.207031 313.921875 299.191406 313.921875 299.175781 313.921875" fill="#1b3c60"/></g><g id="change3_3"><path d="M 297.238281 317.609375 C 296.84375 317.609375 296.515625 317.304688 296.488281 316.90625 C 296.464844 316.492188 296.777344 316.136719 297.191406 316.109375 L 304.089844 315.683594 C 304.5 315.664062 304.859375 315.972656 304.886719 316.386719 C 304.910156 316.800781 304.597656 317.15625 304.183594 317.183594 L 297.285156 317.609375 C 297.269531 317.609375 297.253906 317.609375 297.238281 317.609375" fill="#1b3c60"/></g><g id="change3_4"><path d="M 292.960938 321.085938 C 292.570312 321.085938 292.238281 320.777344 292.214844 320.378906 C 292.1875 319.964844 292.503906 319.609375 292.917969 319.585938 L 299.8125 319.160156 C 300.214844 319.132812 300.582031 319.449219 300.609375 319.863281 C 300.632812 320.277344 300.320312 320.632812 299.90625 320.65625 L 293.007812 321.082031 C 292.992188 321.085938 292.976562 321.085938 292.960938 321.085938" fill="#1b3c60"/></g><g id="change2_3"><path d="M 310.125 214.230469 C 299.425781 217.960938 291.910156 227.625 290.933594 238.914062 L 284.59375 312.359375 L 339.53125 301.4375 L 335.835938 240.378906 L 331.539062 177.816406" fill="#ef3530"/></g><g id="change3_5"><path d="M 299.175781 313.921875 C 298.78125 313.921875 298.453125 313.613281 298.425781 313.214844 C 298.402344 312.804688 298.714844 312.449219 299.128906 312.421875 L 306.027344 311.996094 C 306.429688 311.976562 306.792969 312.289062 306.820312 312.699219 C 306.847656 313.113281 306.53125 313.46875 306.117188 313.496094 L 299.222656 313.917969 C 299.207031 313.921875 299.191406 313.921875 299.175781 313.921875" fill="#1b3c60"/></g><g id="change3_6"><path d="M 297.238281 317.609375 C 296.84375 317.609375 296.515625 317.304688 296.488281 316.90625 C 296.464844 316.492188 296.777344 316.136719 297.191406 316.109375 L 304.089844 315.683594 C 304.5 315.664062 304.859375 315.972656 304.886719 316.386719 C 304.910156 316.800781 304.597656 317.15625 304.183594 317.183594 L 297.285156 317.609375 C 297.269531 317.609375 297.253906 317.609375 297.238281 317.609375" fill="#1b3c60"/></g><g id="change3_7"><path d="M 292.960938 321.085938 C 292.570312 321.085938 292.238281 320.777344 292.214844 320.378906 C 292.1875 319.964844 292.503906 319.609375 292.917969 319.585938 L 299.8125 319.160156 C 300.214844 319.132812 300.582031 319.449219 300.609375 319.863281 C 300.632812 320.277344 300.320312 320.632812 299.90625 320.65625 L 293.007812 321.082031 C 292.992188 321.085938 292.976562 321.085938 292.960938 321.085938" fill="#1b3c60"/></g><g clip-path="url(#a)" id="change4_1"><path d="M 104.488281 309.371094 L 106.0625 327.421875 C 106.453125 331.878906 110.636719 335.003906 115.023438 334.121094 L 152.820312 326.480469 C 156.910156 325.652344 157.703125 320.15625 154.019531 318.207031 L 124.617188 302.652344 L 104.488281 309.371094" fill="#f6c1a1"/></g><g id="change3_8"><path d="M 132.382812 311.605469 C 132.039062 311.605469 131.730469 311.367188 131.652344 311.015625 C 131.5625 310.609375 131.820312 310.210938 132.226562 310.125 L 137.765625 308.914062 C 138.167969 308.824219 138.570312 309.082031 138.660156 309.488281 C 138.746094 309.890625 138.492188 310.292969 138.085938 310.378906 L 132.542969 311.585938 C 132.492188 311.597656 132.4375 311.605469 132.382812 311.605469" fill="#1b3c60"/></g><g id="change3_9"><path d="M 135.90625 313.757812 C 135.5625 313.757812 135.25 313.519531 135.171875 313.167969 C 135.085938 312.761719 135.34375 312.363281 135.746094 312.273438 L 141.289062 311.066406 C 141.691406 310.976562 142.09375 311.234375 142.179688 311.640625 C 142.269531 312.042969 142.011719 312.445312 141.605469 312.53125 L 136.066406 313.738281 C 136.011719 313.753906 135.957031 313.757812 135.90625 313.757812" fill="#1b3c60"/></g><g id="change3_10"><path d="M 140.058594 315.546875 C 139.714844 315.546875 139.402344 315.304688 139.328125 314.957031 C 139.238281 314.550781 139.496094 314.152344 139.902344 314.0625 L 145.441406 312.855469 C 145.847656 312.761719 146.246094 313.023438 146.335938 313.425781 C 146.425781 313.832031 146.167969 314.230469 145.761719 314.320312 L 140.21875 315.527344 C 140.167969 315.539062 140.113281 315.546875 140.058594 315.546875" fill="#1b3c60"/></g><g id="change2_4"><path d="M 79.082031 315.757812 L 132.878906 305.796875 L 127.484375 232.910156 L 116.394531 180.847656 L 93.246094 176.078125" fill="#ef3530"/></g><g id="change1_3"><path d="M 64.871094 174.992188 L 11.089844 174.992188 L 11.089844 165.992188 L 64.871094 165.992188 L 64.871094 174.992188" fill="#35b276"/></g><g id="change1_4"><path d="M 78.019531 333.371094 L 86.980469 333.371094 L 72.042969 170.082031 L 63.082031 170.90625 L 78.019531 333.371094" fill="#35b276"/></g><g id="change1_5"><path d="M 70.140625 243.636719 L 16.359375 243.636719 L 16.359375 234.636719 L 70.140625 234.636719 L 70.140625 243.636719" fill="#35b276"/></g><g id="change1_6"><path d="M 406.136719 174.992188 L 341.09375 174.992188 L 341.09375 165.992188 L 406.136719 165.992188 L 406.136719 174.992188" fill="#35b276"/></g><g clip-path="url(#b)" id="change1_1"><path d="M 408.019531 333.371094 L 416.980469 333.371094 L 402.046875 170.082031 L 393.085938 170.90625 L 408.019531 333.371094" fill="#35b276"/></g><g id="change1_7"><path d="M 400.144531 243.636719 L 346.363281 243.636719 L 346.363281 234.636719 L 400.144531 234.636719 L 400.144531 243.636719" fill="#35b276"/></g><g id="change1_8"><path d="M 338.964844 333.371094 L 330.003906 333.371094 L 344.9375 170.082031 L 353.898438 170.90625 L 338.964844 333.371094" fill="#35b276"/></g><g id="change1_9"><path d="M 8.960938 333.371094 L 0 333.371094 L 14.933594 170.082031 L 23.898438 170.90625 L 8.960938 333.371094" fill="#35b276"/></g><g id="change3_11"><path d="M 32.742188 175.621094 L 11.089844 175.621094 C 10.675781 175.621094 10.339844 175.285156 10.339844 174.871094 C 10.339844 174.457031 10.675781 174.121094 11.089844 174.121094 L 32.742188 174.121094 C 33.15625 174.121094 33.492188 174.457031 33.492188 174.871094 C 33.492188 175.285156 33.15625 175.621094 32.742188 175.621094" fill="#1b3c60"/></g><g id="change3_12"><path d="M 69.785156 244.574219 C 69.402344 244.574219 69.074219 244.28125 69.039062 243.890625 L 68.199219 234.746094 C 68.160156 234.335938 68.464844 233.96875 68.875 233.929688 C 69.289062 233.890625 69.652344 234.195312 69.691406 234.609375 L 70.53125 243.753906 C 70.570312 244.167969 70.265625 244.53125 69.855469 244.570312 C 69.832031 244.574219 69.808594 244.574219 69.785156 244.574219" fill="#1b3c60"/></g><g id="change3_13"><path d="M 17.21875 244.300781 C 17.195312 244.300781 17.171875 244.300781 17.148438 244.296875 C 16.738281 244.261719 16.433594 243.894531 16.472656 243.484375 L 17.285156 234.625 C 17.324219 234.210938 17.6875 233.90625 18.101562 233.945312 C 18.515625 233.984375 18.816406 234.347656 18.78125 234.761719 L 17.964844 243.621094 C 17.929688 244.007812 17.601562 244.300781 17.21875 244.300781" fill="#1b3c60"/></g><g id="change3_14"><path d="M 406.136719 175.683594 L 359.695312 175.683594 C 359.28125 175.683594 358.945312 175.347656 358.945312 174.933594 C 358.945312 174.519531 359.28125 174.183594 359.695312 174.183594 L 406.136719 174.183594 C 406.550781 174.183594 406.886719 174.519531 406.886719 174.933594 C 406.886719 175.347656 406.550781 175.683594 406.136719 175.683594" fill="#1b3c60"/></g><g id="change3_15"><path d="M 399.761719 244.3125 C 399.378906 244.3125 399.054688 244.019531 399.015625 243.632812 L 398.183594 234.554688 C 398.144531 234.140625 398.449219 233.777344 398.863281 233.738281 C 399.265625 233.699219 399.636719 234.003906 399.675781 234.417969 L 400.511719 243.496094 C 400.550781 243.90625 400.246094 244.273438 399.832031 244.308594 C 399.808594 244.3125 399.785156 244.3125 399.761719 244.3125" fill="#1b3c60"/></g><g id="change3_16"><path d="M 347.222656 244.3125 C 347.199219 244.3125 347.175781 244.3125 347.152344 244.308594 C 346.738281 244.273438 346.433594 243.90625 346.472656 243.496094 L 347.308594 234.417969 C 347.34375 234.003906 347.714844 233.699219 348.121094 233.738281 C 348.535156 233.777344 348.839844 234.140625 348.800781 234.554688 L 347.96875 243.632812 C 347.929688 244.019531 347.605469 244.3125 347.222656 244.3125" fill="#1b3c60"/></g><g id="change4_2"><path d="M 112.789062 84.1875 L 111.222656 62.703125 L 138.871094 62.703125 L 135.683594 94.914062 L 112.132812 93.539062 L 112.789062 84.1875" fill="#f6c1a1"/></g><g id="change3_17"><path d="M 310.03125 66.785156 L 336.320312 70.476562 L 333.53125 42.925781 L 338.621094 46.425781 L 350.300781 71.535156 C 350.300781 71.535156 369.039062 75.675781 377.703125 55.253906 C 377.703125 55.253906 368.652344 51.515625 364.519531 38.84375 C 360.382812 26.183594 352.269531 3.015625 328.921875 8.894531 C 321.242188 10.824219 316.816406 12.878906 313.15625 15.636719 C 313.15625 15.636719 296.828125 25.714844 310.03125 66.785156" fill="#1b3c60"/></g><g id="change3_18"><path d="M 53.757812 52.820312 L 89.515625 17.703125 C 89.515625 17.703125 95.808594 13.324219 91.9375 5.695312 C 88.0625 -1.9375 68.132812 -2.164062 59.816406 6.605469 C 59.816406 6.605469 48.90625 2.15625 45.570312 13.539062 C 42.914062 22.597656 53.757812 52.820312 53.757812 52.820312" fill="#1b3c60"/></g><g id="change5_1"><path d="M 339.222656 34.078125 C 339.222656 36.226562 338.070312 38.097656 336.355469 39.128906 C 335.476562 39.652344 334.449219 39.949219 333.351562 39.949219 C 330.113281 39.949219 327.484375 37.324219 327.484375 34.078125 C 327.484375 33.835938 327.5 33.597656 327.527344 33.367188 C 327.882812 30.464844 330.359375 28.214844 333.351562 28.214844 C 336.59375 28.214844 339.222656 30.84375 339.222656 34.078125" fill="#e45b78"/></g><g id="change2_5"><path d="M 326.785156 46.289062 C 327.261719 47.355469 326.347656 48.800781 324.742188 49.519531 C 323.140625 50.238281 321.453125 49.957031 320.976562 48.894531 C 320.5 47.828125 321.410156 46.382812 323.015625 45.664062 C 324.621094 44.945312 326.308594 45.226562 326.785156 46.289062" fill="#ef3530"/></g><g id="change5_2"><path d="M 308.671875 95.953125 L 277.628906 75.257812 L 273.617188 70.078125 C 272.859375 68.894531 271.6875 68.035156 270.320312 67.703125 C 267.636719 67.050781 262.542969 66.289062 255.207031 67.207031 C 253.679688 67.398438 252.457031 68.050781 252.457031 69.582031 L 252.457031 69.648438 C 252.457031 71.125 253.546875 71.96875 254.976562 72.296875 L 263.90625 74.34375 C 263.90625 74.34375 260.851562 78.105469 251.671875 79.753906 C 249.707031 80.109375 242.308594 80.453125 238.804688 80.238281 C 237.3125 80.144531 237.054688 81.90625 237.519531 83.007812 C 238.089844 84.539062 241.402344 86.320312 244.359375 86.28125 L 271.296875 87.324219 L 301 121.820312 C 304.503906 125.730469 310.347656 126.492188 314.742188 123.613281 L 327.484375 115.253906 L 308.671875 95.953125" fill="#e45b78"/></g><g id="change5_3"><path d="M 105.96875 93.65625 L 112.253906 76.914062 L 112.789062 84.1875 C 114.734375 82.195312 117.546875 81.324219 120.28125 81.855469 C 123.941406 82.566406 129.554688 83.164062 135.261719 81.921875 C 138.269531 81.261719 141.113281 83.566406 141.113281 86.648438 L 141.113281 92.140625 C 141.113281 96.53125 139.351562 100.734375 136.222656 103.8125 L 126.964844 112.914062 L 109.355469 111.234375 L 105.96875 93.65625" fill="#e45b78"/></g><g id="change5_4"><path d="M 89.300781 43.882812 L 84.203125 42.875 L 83.25 46.554688 C 82.210938 50.59375 78.601562 53.355469 74.5625 53.445312 L 70.820312 64.195312 L 67.589844 74.273438 L 62.023438 71.964844 L 52.703125 80.195312 L 53.761719 52.824219 L 55.382812 36.574219 L 62.832031 33.335938 C 63.839844 33.742188 64.972656 33.894531 66.132812 33.714844 C 69.542969 33.195312 71.882812 30.003906 71.359375 26.585938 C 71.320312 26.324219 71.273438 26.074219 71.203125 25.835938 L 89.515625 17.703125 L 87.089844 29.503906 L 89.300781 43.882812" fill="#e45b78"/></g><g id="change5_5"><path d="M 58.992188 28.476562 C 59.339844 30.738281 60.855469 32.527344 62.828125 33.335938 C 63.839844 33.742188 64.972656 33.894531 66.128906 33.71875 C 69.539062 33.195312 71.886719 30 71.363281 26.582031 C 71.324219 26.324219 71.269531 26.074219 71.203125 25.839844 C 70.359375 22.839844 67.386719 20.863281 64.234375 21.347656 C 60.816406 21.871094 58.46875 25.066406 58.992188 28.476562" fill="#e45b78"/></g><g id="change2_6"><path d="M 71.488281 35.691406 C 71.160156 36.890625 72.355469 38.265625 74.160156 38.765625 C 75.96875 39.265625 77.703125 38.695312 78.03125 37.496094 C 78.363281 36.300781 77.167969 34.921875 75.359375 34.425781 C 73.554688 33.925781 71.820312 34.492188 71.488281 35.691406" fill="#ef3530"/></g><g id="change3_19"><path d="M 71.203125 25.839844 C 71.203125 25.839844 72.042969 28.066406 71 29.816406 L 75.988281 29.363281 L 72.828125 18.964844 L 71.203125 25.839844" fill="#1b3c60"/></g><g id="change5_6"><path d="M 348.128906 57.429688 L 342.257812 48.199219 L 336.355469 39.128906 C 335.476562 39.652344 334.449219 39.949219 333.351562 39.949219 C 330.113281 39.949219 327.484375 37.324219 327.484375 34.078125 C 327.484375 33.835938 327.5 33.597656 327.527344 33.367188 L 310.679688 31.90625 L 313.316406 39.023438 L 313.316406 52.667969 L 317.894531 51.011719 L 319.300781 54.28125 C 319.527344 54.8125 319.804688 55.308594 320.121094 55.769531 L 324.777344 50.84375 L 323.304688 58.554688 C 325.257812 59.554688 327.578125 59.820312 329.8125 59.121094 L 333.023438 58.121094 C 337.167969 67.390625 337.175781 81.132812 337.175781 81.132812 L 338.265625 86.203125 L 352.402344 81.132812 L 348.128906 57.429688" fill="#e45b78"/></g><g id="change2_7"><path d="M 326.785156 46.289062 C 327.261719 47.355469 326.347656 48.800781 324.742188 49.519531 C 323.140625 50.238281 321.453125 49.957031 320.976562 48.894531 C 320.5 47.828125 321.410156 46.382812 323.015625 45.664062 C 324.621094 44.945312 326.308594 45.226562 326.785156 46.289062" fill="#ef3530"/></g><g id="change3_20"><path d="M 78.503906 29.269531 C 78.273438 29.269531 78.042969 29.160156 77.894531 28.957031 C 77.65625 28.621094 77.730469 28.15625 78.0625 27.914062 C 78.152344 27.847656 80.277344 26.34375 82.699219 26.796875 C 83.105469 26.871094 83.375 27.265625 83.296875 27.671875 C 83.222656 28.078125 82.832031 28.347656 82.421875 28.269531 C 80.640625 27.9375 78.957031 29.117188 78.941406 29.128906 C 78.808594 29.222656 78.65625 29.269531 78.503906 29.269531" fill="#1b3c60"/></g><g id="change3_21"><path d="M 68.761719 29.839844 C 68.390625 29.839844 68.066406 29.566406 68.019531 29.1875 C 67.53125 25.5 63.996094 25.152344 63.847656 25.140625 C 63.433594 25.101562 63.128906 24.742188 63.164062 24.328125 C 63.199219 23.917969 63.5625 23.617188 63.96875 23.644531 C 65.65625 23.777344 68.988281 25.066406 69.503906 28.992188 C 69.558594 29.402344 69.269531 29.777344 68.859375 29.832031 C 68.828125 29.835938 68.792969 29.839844 68.761719 29.839844" fill="#1b3c60"/></g><g id="change3_22"><path d="M 61.839844 30.566406 C 61.742188 30.566406 61.644531 30.546875 61.546875 30.507812 C 61.167969 30.347656 60.988281 29.910156 61.148438 29.527344 C 61.226562 29.335938 63.152344 24.851562 66.808594 24.816406 C 66.8125 24.816406 66.8125 24.816406 66.816406 24.816406 C 67.226562 24.816406 67.5625 25.144531 67.566406 25.558594 C 67.570312 25.972656 67.238281 26.3125 66.824219 26.316406 C 64.15625 26.34375 62.546875 30.070312 62.53125 30.109375 C 62.410156 30.394531 62.132812 30.566406 61.839844 30.566406" fill="#1b3c60"/></g><g id="change4_3"><path d="M 66.941406 268.976562 L 59.664062 288.648438 C 57.480469 294.554688 60.921875 301.046875 67.035156 302.558594 L 119.71875 315.5625 C 125.414062 316.96875 129.734375 310.453125 126.214844 305.753906 L 98.164062 268.292969 L 66.941406 268.976562" fill="#f6c1a1"/></g><g id="change1_10"><path d="M 302.761719 267.976562 L 342.296875 258.300781 L 351.496094 283.015625 L 336.378906 286.515625 L 331.246094 279.015625 L 328.398438 288.675781 L 285.769531 298.441406 C 284.050781 298.835938 282.457031 297.429688 282.625 295.679688 C 283.152344 290.238281 287.019531 285.707031 292.308594 284.328125 C 297.351562 283.015625 301.125 278.824219 301.902344 273.671875 L 302.761719 267.976562" fill="#35b276"/></g><g id="change2_8"><path d="M 13.300781 143.03125 C 13.300781 143.03125 6.796875 177.347656 64.492188 183.445312 L 100.667969 188.199219 L 66.941406 268.976562 L 134.640625 284.292969 L 136.976562 179.070312 C 137.125 172.410156 132.464844 166.609375 125.929688 165.316406 L 13.300781 143.03125" fill="#ef3530"/></g><g id="change2_9"><path d="M 279.777344 273.179688 L 343.230469 260.566406 L 319.148438 194.820312 L 394.070312 161.5625 C 394.070312 161.5625 411.285156 153.625 398.148438 128.886719 C 385.015625 104.152344 398.148438 128.886719 398.148438 128.886719 L 309.269531 159.839844 C 296.90625 164.144531 288.226562 175.308594 287.101562 188.347656 L 279.777344 273.179688" fill="#ef3530"/></g><g id="change1_11"><path d="M 53.757812 52.820312 C 53.757812 52.820312 50.398438 63.675781 41.351562 72.722656 C 32.304688 81.769531 16.921875 105.554688 13.300781 143.03125 L 64.871094 153.878906 L 71.359375 161.351562 C 75.171875 165.746094 82.078125 165.492188 85.554688 160.824219 L 128.699219 114.503906 L 105.96875 93.65625 L 82.191406 130.101562 L 67.585938 74.273438 L 70.816406 64.191406 L 53.757812 52.820312" fill="#35b276"/></g><g id="change4_4"><path d="M 308.671875 95.953125 L 325.757812 124.847656 L 341.914062 104.652344 L 341.914062 148.460938 L 398.148438 128.886719 C 398.148438 128.886719 384.480469 94.398438 348.128906 57.429688 C 348.128906 57.429688 342.535156 68.925781 336.320312 70.476562 L 308.671875 95.953125" fill="#f6c1a1"/></g><g id="change3_23"><path d="M 64.871094 153.878906 L 45.503906 122.238281 L 51.027344 150.964844 Z M 64.871094 153.878906" fill="#1b3c60"/></g><g id="change3_24"><path d="M 341.914062 104.652344 L 351.136719 92.476562 L 341.914062 119.210938 Z M 341.914062 104.652344" fill="#1b3c60"/></g><g id="change3_25"><path d="M 76.242188 54.40625 C 75.621094 54.40625 74.992188 54.328125 74.375 54.171875 L 67.039062 51.894531 C 66.644531 51.769531 66.421875 51.351562 66.542969 50.953125 C 66.667969 50.558594 67.085938 50.339844 67.484375 50.460938 L 74.785156 52.726562 C 76.296875 53.113281 77.90625 52.882812 79.28125 52.066406 C 80.65625 51.25 81.632812 49.949219 82.023438 48.398438 L 83.472656 42.691406 C 83.574219 42.304688 83.960938 42.0625 84.347656 42.136719 L 88.398438 42.941406 L 86.351562 29.617188 C 86.335938 29.53125 86.339844 29.441406 86.355469 29.355469 L 89.011719 16.441406 C 89.09375 16.035156 89.496094 15.777344 89.898438 15.855469 C 90.300781 15.941406 90.5625 16.335938 90.480469 16.742188 L 87.851562 29.523438 L 90.042969 43.769531 C 90.078125 44.011719 89.996094 44.257812 89.820312 44.425781 C 89.644531 44.59375 89.398438 44.667969 89.15625 44.621094 L 84.753906 43.746094 L 83.476562 48.765625 C 82.984375 50.707031 81.769531 52.335938 80.046875 53.355469 C 78.878906 54.050781 77.570312 54.40625 76.242188 54.40625" fill="#1b3c60"/></g><g id="change3_26"><path d="M 118.8125 116.011719 C 118.632812 116.011719 118.453125 115.945312 118.3125 115.820312 L 101.324219 100.5625 C 101.050781 100.3125 100.996094 99.902344 101.199219 99.59375 L 105.339844 93.246094 C 105.460938 93.0625 105.65625 92.941406 105.875 92.914062 C 106.09375 92.886719 106.3125 92.953125 106.476562 93.105469 L 129.207031 113.949219 C 129.511719 114.230469 129.53125 114.703125 129.25 115.011719 C 128.972656 115.316406 128.496094 115.335938 128.191406 115.054688 L 106.113281 94.808594 L 102.808594 99.875 L 119.3125 114.703125 C 119.621094 114.980469 119.644531 115.453125 119.371094 115.761719 C 119.222656 115.925781 119.015625 116.011719 118.8125 116.011719" fill="#1b3c60"/></g><g id="change3_27"><path d="M 133.886719 89.304688 C 133.511719 89.304688 133.1875 89.023438 133.140625 88.640625 C 133.09375 88.230469 133.390625 87.859375 133.800781 87.8125 L 141.027344 86.976562 C 141.429688 86.925781 141.808594 87.222656 141.859375 87.636719 C 141.90625 88.046875 141.609375 88.417969 141.199219 88.464844 L 133.972656 89.300781 C 133.945312 89.304688 133.914062 89.304688 133.886719 89.304688" fill="#1b3c60"/></g><g id="change3_28"><path d="M 133.886719 94.824219 C 133.511719 94.824219 133.1875 94.542969 133.140625 94.160156 C 133.09375 93.75 133.390625 93.378906 133.800781 93.328125 L 141.027344 92.492188 C 141.429688 92.449219 141.808594 92.742188 141.859375 93.152344 C 141.90625 93.5625 141.609375 93.9375 141.199219 93.984375 L 133.972656 94.820312 C 133.945312 94.824219 133.914062 94.824219 133.886719 94.824219" fill="#1b3c60"/></g><g id="change3_29"><path d="M 134.488281 99.988281 C 134.113281 99.988281 133.789062 99.703125 133.746094 99.320312 C 133.699219 98.90625 134 98.539062 134.410156 98.492188 L 139.679688 97.921875 C 140.089844 97.875 140.460938 98.171875 140.507812 98.585938 C 140.550781 98.996094 140.253906 99.367188 139.839844 99.410156 L 134.570312 99.984375 C 134.546875 99.988281 134.519531 99.988281 134.488281 99.988281" fill="#1b3c60"/></g><g id="change3_30"><path d="M 110.886719 285.941406 C 110.832031 285.941406 110.777344 285.9375 110.71875 285.921875 L 102.941406 284.128906 C 102.539062 284.035156 102.285156 283.632812 102.378906 283.226562 C 102.472656 282.824219 102.875 282.570312 103.277344 282.667969 L 111.054688 284.460938 C 111.460938 284.554688 111.710938 284.957031 111.617188 285.359375 C 111.539062 285.707031 111.230469 285.941406 110.886719 285.941406" fill="#1b3c60"/></g><g id="change3_31"><path d="M 114.074219 290.796875 C 114.019531 290.796875 113.960938 290.792969 113.90625 290.777344 L 106.128906 288.984375 C 105.726562 288.890625 105.472656 288.488281 105.566406 288.085938 C 105.660156 287.679688 106.0625 287.425781 106.464844 287.523438 L 114.242188 289.316406 C 114.644531 289.410156 114.898438 289.8125 114.804688 290.214844 C 114.726562 290.5625 114.414062 290.796875 114.074219 290.796875" fill="#1b3c60"/></g><g id="change3_32"><path d="M 118.285156 295.570312 C 118.230469 295.570312 118.171875 295.5625 118.117188 295.550781 L 110.339844 293.753906 C 109.9375 293.664062 109.683594 293.257812 109.777344 292.855469 C 109.871094 292.453125 110.273438 292.195312 110.675781 292.292969 L 118.453125 294.089844 C 118.855469 294.179688 119.109375 294.585938 119.015625 294.988281 C 118.9375 295.335938 118.628906 295.570312 118.285156 295.570312" fill="#1b3c60"/></g><g id="change3_33"><path d="M 301.984375 273.929688 C 301.644531 273.929688 301.335938 273.695312 301.257812 273.347656 C 301.164062 272.945312 301.414062 272.542969 301.816406 272.449219 L 309.59375 270.65625 C 309.992188 270.558594 310.402344 270.8125 310.496094 271.214844 C 310.589844 271.621094 310.335938 272.023438 309.933594 272.117188 L 302.15625 273.910156 C 302.097656 273.925781 302.042969 273.929688 301.984375 273.929688" fill="#1b3c60"/></g><g id="change3_34"><path d="M 300.480469 278.5 C 300.140625 278.5 299.832031 278.265625 299.75 277.917969 C 299.65625 277.515625 299.910156 277.113281 300.3125 277.019531 L 308.089844 275.226562 C 308.488281 275.128906 308.894531 275.382812 308.988281 275.789062 C 309.082031 276.191406 308.832031 276.59375 308.429688 276.6875 L 300.652344 278.480469 C 300.59375 278.496094 300.539062 278.5 300.480469 278.5" fill="#1b3c60"/></g><g id="change3_35"><path d="M 296.269531 283.273438 C 295.929688 283.273438 295.621094 283.039062 295.539062 282.691406 C 295.445312 282.289062 295.699219 281.882812 296.101562 281.792969 L 303.878906 279.996094 C 304.277344 279.902344 304.683594 280.152344 304.777344 280.558594 C 304.871094 280.960938 304.621094 281.363281 304.214844 281.457031 L 296.441406 283.253906 C 296.382812 283.265625 296.328125 283.273438 296.269531 283.273438" fill="#1b3c60"/></g><g id="change3_36"><path d="M 80.0625 35.289062 C 79.996094 35.289062 79.925781 35.28125 79.859375 35.261719 C 79.460938 35.148438 79.226562 34.734375 79.339844 34.335938 L 79.941406 32.191406 C 80.050781 31.792969 80.46875 31.558594 80.863281 31.671875 C 81.261719 31.78125 81.496094 32.195312 81.382812 32.597656 L 80.78125 34.742188 C 80.691406 35.074219 80.390625 35.289062 80.0625 35.289062" fill="#1b3c60"/></g><g id="change3_37"><path d="M 83.253906 47.304688 C 83.210938 47.304688 83.167969 47.300781 83.128906 47.292969 C 77.109375 46.28125 76.308594 41.105469 76.300781 41.050781 C 76.242188 40.640625 76.527344 40.261719 76.9375 40.203125 C 77.347656 40.148438 77.726562 40.429688 77.785156 40.839844 C 77.816406 41.027344 78.480469 44.992188 83.375 45.816406 C 83.785156 45.882812 84.058594 46.269531 83.992188 46.679688 C 83.929688 47.046875 83.613281 47.304688 83.253906 47.304688" fill="#1b3c60"/></g><g id="change3_38"><path d="M 331.117188 38.71875 C 330.785156 38.71875 330.480469 38.496094 330.394531 38.160156 C 329.78125 35.839844 329.671875 31.042969 333.652344 29.519531 C 334.042969 29.371094 334.472656 29.566406 334.621094 29.953125 C 334.769531 30.339844 334.574219 30.773438 334.1875 30.921875 C 330.472656 32.34375 331.785156 37.558594 331.84375 37.777344 C 331.949219 38.179688 331.710938 38.589844 331.308594 38.691406 C 331.246094 38.710938 331.179688 38.71875 331.117188 38.71875" fill="#1b3c60"/></g><g id="change3_39"><path d="M 336.804688 35.753906 C 336.625 35.753906 336.441406 35.6875 336.300781 35.558594 C 336.277344 35.535156 333.929688 33.460938 331.398438 34.304688 C 331 34.4375 330.582031 34.222656 330.449219 33.828125 C 330.320312 33.4375 330.53125 33.011719 330.925781 32.882812 C 334.296875 31.757812 337.1875 34.335938 337.308594 34.449219 C 337.613281 34.726562 337.636719 35.199219 337.359375 35.507812 C 337.210938 35.671875 337.007812 35.753906 336.804688 35.753906" fill="#1b3c60"/></g><g id="change3_40"><path d="M 322.445312 38.519531 C 322.304688 38.519531 322.164062 38.480469 322.039062 38.398438 C 322.019531 38.386719 320.289062 37.285156 318.519531 37.703125 C 318.117188 37.796875 317.714844 37.550781 317.617188 37.144531 C 317.523438 36.742188 317.773438 36.339844 318.175781 36.242188 C 320.578125 35.679688 322.765625 37.082031 322.859375 37.140625 C 323.203125 37.371094 323.300781 37.835938 323.074219 38.179688 C 322.929688 38.398438 322.691406 38.519531 322.445312 38.519531" fill="#1b3c60"/></g><g id="change3_41"><path d="M 321.171875 44.605469 C 320.855469 44.605469 320.5625 44.40625 320.457031 44.089844 L 319.757812 41.976562 C 319.628906 41.582031 319.839844 41.15625 320.234375 41.027344 C 320.625 40.894531 321.050781 41.109375 321.183594 41.503906 L 321.882812 43.617188 C 322.011719 44.011719 321.800781 44.4375 321.40625 44.566406 C 321.328125 44.59375 321.25 44.605469 321.171875 44.605469" fill="#1b3c60"/></g><g id="change2_10"><path d="M 219.101562 329.015625 L 209.101562 329.015625 L 209.101562 142.0625 L 219.101562 142.0625 L 219.101562 329.015625" fill="#ef3530"/></g><g clip-path="url(#c)" id="change2_1"><path d="M 254.03125 334.015625 L 174.171875 334.015625 L 174.171875 324.015625 L 254.03125 324.015625 L 254.03125 334.015625" fill="#ef3530"/></g><g id="change2_11"><path d="M 298.480469 148.460938 L 129.722656 148.460938 C 126.1875 148.460938 123.324219 145.597656 123.324219 142.0625 C 123.324219 138.53125 126.1875 135.667969 129.722656 135.667969 L 298.480469 135.667969 C 302.011719 135.667969 304.875 138.53125 304.875 142.0625 C 304.875 145.597656 302.011719 148.460938 298.480469 148.460938" fill="#ef3530"/></g><g id="change3_42"><path d="M 219.140625 149.210938 L 209.203125 149.210938 C 208.789062 149.210938 208.453125 148.875 208.453125 148.460938 C 208.453125 148.046875 208.789062 147.710938 209.203125 147.710938 L 219.140625 147.710938 C 219.554688 147.710938 219.890625 148.046875 219.890625 148.460938 C 219.890625 148.875 219.554688 149.210938 219.140625 149.210938" fill="#1b3c60"/></g><g id="change3_43"><path d="M 219.117188 324.75 L 209.054688 324.75 C 208.640625 324.75 208.304688 324.414062 208.304688 324 C 208.304688 323.585938 208.640625 323.25 209.054688 323.25 L 219.117188 323.25 C 219.53125 323.25 219.867188 323.585938 219.867188 324 C 219.867188 324.414062 219.53125 324.75 219.117188 324.75" fill="#1b3c60"/></g><g id="change3_44"><path d="M 345.15625 266.742188 C 344.851562 266.742188 344.5625 266.550781 344.453125 266.246094 L 337.269531 246.46875 L 318.445312 195.078125 C 318.308594 194.707031 318.484375 194.292969 318.84375 194.132812 L 332 188.292969 C 332.382812 188.125 332.824219 188.296875 332.992188 188.675781 C 333.160156 189.054688 332.988281 189.496094 332.609375 189.664062 L 320.09375 195.21875 L 338.679688 245.957031 L 345.863281 265.734375 C 346.003906 266.125 345.804688 266.554688 345.414062 266.695312 C 345.328125 266.726562 345.242188 266.742188 345.15625 266.742188" fill="#1b3c60"/></g><g id="change3_45"><path d="M 243.007812 81.117188 C 241.667969 81.117188 240.253906 81.074219 238.761719 80.988281 C 238.347656 80.964844 238.03125 80.605469 238.058594 80.195312 C 238.082031 79.78125 238.46875 79.46875 238.851562 79.488281 C 257.621094 80.59375 263.265625 73.941406 263.320312 73.875 C 263.582031 73.554688 264.054688 73.503906 264.375 73.761719 C 264.695312 74.019531 264.75 74.488281 264.492188 74.8125 C 264.269531 75.089844 259.273438 81.117188 243.007812 81.117188" fill="#1b3c60"/></g><g id="change3_46"><path d="M 89.050781 216.773438 C 88.953125 216.773438 88.855469 216.753906 88.761719 216.714844 C 88.378906 216.554688 88.199219 216.117188 88.359375 215.734375 L 99.597656 188.8125 L 91.6875 187.773438 C 91.277344 187.71875 90.988281 187.34375 91.042969 186.933594 C 91.097656 186.523438 91.472656 186.226562 91.882812 186.289062 L 100.765625 187.453125 C 100.996094 187.484375 101.203125 187.621094 101.316406 187.824219 C 101.433594 188.027344 101.449219 188.269531 101.359375 188.488281 L 89.742188 216.3125 C 89.621094 216.597656 89.34375 216.773438 89.050781 216.773438" fill="#1b3c60"/></g><g id="change3_47"><path d="M 121.425781 316.527344 C 120.703125 316.527344 120.042969 316.429688 119.523438 316.289062 L 104.527344 312.585938 C 104.125 312.484375 103.878906 312.082031 103.980469 311.675781 C 104.078125 311.273438 104.488281 311.035156 104.886719 311.128906 L 119.898438 314.835938 C 120.109375 314.890625 124.769531 316.066406 126.316406 311.554688 C 126.453125 311.164062 126.878906 310.953125 127.269531 311.089844 C 127.660156 311.222656 127.871094 311.652344 127.734375 312.042969 C 126.523438 315.582031 123.671875 316.527344 121.425781 316.527344" fill="#1b3c60"/></g><g clip-path="url(#d)" id="change3_1"><path d="M 330.003906 334.121094 C 329.980469 334.121094 329.957031 334.117188 329.933594 334.117188 C 329.523438 334.078125 329.21875 333.714844 329.253906 333.300781 L 333.789062 283.753906 C 333.824219 283.339844 334.199219 283.042969 334.601562 283.074219 C 335.015625 283.113281 335.320312 283.476562 335.28125 283.890625 L 330.75 333.4375 C 330.714844 333.828125 330.386719 334.121094 330.003906 334.121094" fill="#1b3c60"/></g><g id="change4_5"><path d="M 252.878906 135.667969 L 229.921875 135.667969 L 224.921875 96.066406 L 257.878906 96.066406 L 252.878906 135.667969" fill="#f6c1a1"/></g></g></svg>