<?xml version="1.0" encoding="UTF-8" standalone="no"?><svg xmlns="http://www.w3.org/2000/svg" xmlns:xlink="http://www.w3.org/1999/xlink" fill="#000000" height="337.5" preserveAspectRatio="xMidYMid meet" version="1" viewBox="-3.3 -17.1 438.6 337.5" width="438.6" zoomAndPan="magnify"><defs><clipPath id="a"><path d="M 406 181 L 435.230469 181 L 435.230469 222 L 406 222 Z M 406 181"/></clipPath><clipPath id="b"><path d="M 0 96 L 179 96 L 179 320.441406 L 0 320.441406 Z M 0 96"/></clipPath><clipPath id="c"><path d="M 46 225 L 64 225 L 64 320.441406 L 46 320.441406 Z M 46 225"/></clipPath><clipPath id="d"><path d="M 148 96 L 313 96 L 313 320.441406 L 148 320.441406 Z M 148 96"/></clipPath></defs><g><g id="change1_1"><path d="M 120.757812 26.4375 C 123.933594 33.453125 130.265625 46.984375 137.761719 67.570312 C 149.199219 98.96875 129.179688 112.367188 129.179688 112.367188 L 46.90625 171.417969 L 14.445312 168.066406 C 2.742188 166.859375 -3.339844 153.507812 3.425781 143.882812 L 11.082031 133 C 4.90625 128.527344 2.242188 120.636719 4.445312 113.335938 L 4.699219 112.503906 C 6.769531 105.640625 12.285156 100.394531 19.21875 98.582031 C 33.078125 94.957031 54.40625 86.859375 48.75 72.171875 C 40.535156 50.828125 28.558594 24.746094 57.878906 6.25 C 57.878906 6.25 101.054688 -17.089844 120.757812 26.4375" fill="#1b3c60"/></g><g id="change1_2"><path d="M 167.058594 133.640625 L 168.679688 115.710938 C 169.511719 106.492188 173.136719 97.742188 179.0625 90.636719 C 185.648438 82.738281 189.171875 72.765625 189.132812 62.484375 C 189.105469 55.769531 189.8125 47.101562 192.371094 37.328125 C 195.636719 24.847656 205.640625 15.253906 218.222656 12.390625 L 224.945312 10.859375 C 237.753906 7.945312 251.144531 12.792969 258.9375 23.371094 C 265.792969 32.675781 272.128906 46.074219 272.238281 63.878906 C 272.476562 102.886719 267.082031 120.746094 267.082031 120.746094 L 218.351562 157.132812 L 159.074219 161.714844 L 167.058594 133.640625" fill="#1b3c60"/></g><g id="change2_2"><path d="M 203.296875 104.753906 C 203.296875 104.753906 211.066406 100.839844 211.886719 81.859375 L 235.761719 81.859375 L 248.332031 96.15625 L 235.148438 149.203125 L 186.988281 153.488281 L 203.296875 104.753906" fill="#903845"/></g><g id="change2_3"><path d="M 75.78125 96.15625 C 75.78125 96.15625 88.5625 93.179688 83.546875 71.53125 L 104.515625 80.191406 C 104.515625 80.191406 105.34375 89.5625 109.828125 96.15625 L 123.199219 114.601562 L 103.148438 148.785156 L 58.480469 144.226562 L 75.78125 96.15625" fill="#903845"/></g><g id="change2_4"><path d="M 102.925781 82.480469 C 90.914062 85.710938 78.558594 78.59375 75.328125 66.582031 L 71.042969 50.648438 C 67.816406 38.636719 74.933594 26.28125 86.945312 23.050781 C 98.957031 19.820312 111.3125 26.941406 114.539062 38.949219 L 118.824219 54.886719 C 122.054688 66.898438 114.9375 79.253906 102.925781 82.480469" fill="#903845"/></g><g id="change2_5"><path d="M 216.367188 86.921875 C 228.5625 89.363281 240.429688 81.460938 242.871094 69.265625 L 246.113281 53.085938 C 248.558594 40.890625 240.652344 29.023438 228.457031 26.578125 C 216.261719 24.136719 204.394531 32.039062 201.949219 44.238281 L 198.710938 60.414062 C 196.265625 72.609375 204.171875 84.476562 216.367188 86.921875" fill="#903845"/></g><g id="change2_6"><path d="M 312.664062 144.640625 L 383.191406 180.503906 C 383.191406 180.503906 395.265625 166.101562 405.734375 161.097656 C 407.671875 160.175781 409.746094 161.65625 410.597656 164.480469 C 411.589844 167.785156 410.542969 171.695312 408.316406 172.957031 C 404.433594 175.15625 402.304688 177.855469 400.621094 179.910156 C 400.621094 179.910156 411.507812 177.167969 420.929688 179.234375 C 421.949219 179.457031 429.625 181.640625 429.269531 185.234375 C 428.699219 191.019531 423.199219 205.519531 422.914062 213.027344 C 422.757812 217.113281 420.253906 220.003906 417.65625 219.074219 C 411.292969 216.804688 400.695312 208.902344 395.277344 207.578125 C 387.21875 205.613281 300.597656 187.460938 300.597656 187.460938 L 312.664062 144.640625" fill="#903845"/></g><g clip-path="url(#a)" id="change2_1"><path d="M 426.664062 181.5625 L 433.238281 186.183594 C 434.855469 187.378906 435.570312 189.585938 434.996094 191.625 C 434.359375 193.890625 432.320312 195.320312 430.167969 195.011719 L 427.089844 194.570312 L 432.609375 197.269531 C 434.554688 198.21875 435.601562 200.546875 435.105469 202.804688 C 434.546875 205.359375 432.21875 206.957031 429.867188 206.402344 L 424.238281 205.078125 L 429.203125 207.554688 C 430.933594 208.414062 431.777344 210.566406 431.160156 212.523438 C 430.554688 214.449219 428.730469 215.578125 426.90625 215.15625 L 422.796875 214.207031 C 424.585938 215.574219 424.851562 218.355469 423.355469 220.09375 L 423.328125 220.121094 C 422.144531 221.503906 420.222656 221.753906 418.765625 220.726562 L 406 212.90625 L 426.664062 181.5625" fill="#903845"/></g><g id="change1_3"><path d="M 427.085938 195.320312 C 426.976562 195.320312 426.863281 195.296875 426.757812 195.246094 C 421.394531 192.621094 410.882812 190.835938 410.777344 190.816406 C 410.367188 190.746094 410.09375 190.359375 410.160156 189.953125 C 410.230469 189.542969 410.609375 189.257812 411.023438 189.335938 C 411.464844 189.410156 421.863281 191.179688 427.417969 193.898438 C 427.789062 194.078125 427.941406 194.527344 427.761719 194.898438 C 427.632812 195.167969 427.363281 195.320312 427.085938 195.320312" fill="#1b3c60"/></g><g id="change1_4"><path d="M 424.238281 205.828125 C 424.128906 205.828125 424.019531 205.804688 423.910156 205.753906 L 413.09375 200.511719 C 412.722656 200.328125 412.566406 199.882812 412.746094 199.507812 C 412.925781 199.136719 413.375 198.980469 413.746094 199.160156 L 424.566406 204.402344 C 424.9375 204.585938 425.09375 205.03125 424.914062 205.40625 C 424.785156 205.671875 424.519531 205.828125 424.238281 205.828125" fill="#1b3c60"/></g><g id="change1_5"><path d="M 422.796875 214.957031 C 422.660156 214.957031 422.523438 214.921875 422.398438 214.84375 L 407.6875 205.714844 C 407.339844 205.496094 407.230469 205.035156 407.445312 204.683594 C 407.667969 204.332031 408.128906 204.222656 408.480469 204.441406 L 423.191406 213.570312 C 423.542969 213.789062 423.652344 214.25 423.433594 214.601562 C 423.289062 214.832031 423.046875 214.957031 422.796875 214.957031" fill="#1b3c60"/></g><g clip-path="url(#b)" id="change3_1"><path d="M 75.78125 96.15625 L 68.273438 102.484375 C 54.96875 113.6875 43.609375 127.007812 34.640625 141.910156 L 6.046875 189.441406 C -2.886719 204.285156 -1.847656 223.074219 8.667969 236.84375 L 35.617188 272.144531 L 65.066406 210.105469 L 43.863281 200.289062 L 51.324219 188.117188 C 51.324219 188.117188 63.101562 250.546875 52.503906 320.441406 L 151.742188 320.273438 C 151.742188 320.273438 157.710938 233.464844 150.609375 164.488281 L 174.222656 179.480469 L 178.933594 143.355469 L 158.003906 124.441406 C 150.269531 117.453125 141.585938 111.59375 132.210938 107.039062 L 109.828125 96.15625 C 109.828125 96.15625 119.253906 110.765625 108.257812 116.261719 C 97.265625 121.761719 79.035156 108.25 75.78125 96.15625" fill="#51ade5"/></g><g clip-path="url(#c)" id="change1_36"><path d="M 46.199219 320.441406 L 57.800781 225.675781 L 63.128906 320.421875 Z M 46.199219 320.441406" fill="#1b3c60"/></g><g clip-path="url(#d)" id="change4_1"><path d="M 183.898438 117.785156 L 148.773438 157.636719 L 153.085938 198.417969 L 172.628906 188.984375 L 160.605469 320.28125 L 283.84375 320.441406 L 264.199219 172.089844 L 300.65625 192.679688 L 312.664062 144.640625 L 273.390625 104.625 C 269.386719 100.546875 264.105469 97.964844 258.429688 97.316406 L 248.332031 96.15625 C 248.332031 96.15625 232.890625 119.765625 214.019531 123.625 C 195.148438 127.484375 203.296875 104.753906 203.296875 104.753906 L 187.980469 114.324219 C 186.457031 115.273438 185.082031 116.441406 183.898438 117.785156" fill="#ffffff"/></g><g id="change2_7"><path d="M 80.386719 60.566406 C 80.636719 66.367188 76.136719 71.273438 70.332031 71.523438 C 64.53125 71.769531 59.625 67.269531 59.375 61.46875 C 59.128906 55.664062 63.628906 50.757812 69.429688 50.511719 C 75.234375 50.261719 80.140625 54.761719 80.386719 60.566406" fill="#903845"/></g><g id="change2_8"><path d="M 256.75 59.371094 C 257 65.171875 252.5 70.078125 246.695312 70.328125 C 240.894531 70.578125 235.988281 66.074219 235.738281 60.273438 C 235.488281 54.472656 239.992188 49.566406 245.796875 49.316406 C 251.597656 49.066406 256.503906 53.570312 256.75 59.371094" fill="#903845"/></g><g id="change2_9"><path d="M 46.199219 249.980469 L 65.234375 210.105469 C 65.234375 210.105469 76.722656 214.832031 87.378906 213.46875 C 89.941406 213.140625 92.292969 214.960938 92.726562 217.511719 C 93.15625 220.027344 91.578125 222.449219 89.101562 223.074219 C 85.871094 223.890625 81.695312 224.808594 79.648438 224.695312 C 79.648438 224.695312 93.269531 226.699219 103.890625 225.699219 L 92.734375 259.804688 C 92.734375 259.804688 69.046875 259.035156 46.199219 249.980469" fill="#903845"/></g><g id="change2_10"><path d="M 103.890625 225.699219 C 106.714844 225.433594 109.222656 227.503906 109.496094 230.328125 L 109.503906 230.414062 C 109.777344 233.234375 107.722656 235.742188 104.90625 236.03125 L 100.355469 236.5 L 110.867188 236.792969 C 113.480469 236.863281 115.558594 239.003906 115.558594 241.613281 C 115.558594 244.320312 113.332031 246.5 110.625 246.4375 L 97.207031 246.132812 L 109.246094 247.5 C 111.453125 247.75 112.996094 249.808594 112.617188 251.996094 C 112.265625 254.015625 110.394531 255.410156 108.359375 255.167969 L 94.773438 253.566406 L 101.394531 255.042969 C 102.75 255.34375 103.570312 256.71875 103.191406 258.054688 C 102.894531 259.089844 101.949219 259.804688 100.871094 259.804688 L 92.734375 259.804688 L 83.957031 239.375 L 103.890625 225.699219" fill="#903845"/></g><g id="change1_6"><path d="M 104.820312 56.714844 C 104.460938 56.714844 104.144531 56.460938 104.082031 56.09375 C 104.007812 55.6875 104.28125 55.296875 104.6875 55.226562 L 110.230469 54.242188 L 104.132812 40.371094 C 103.96875 39.992188 104.140625 39.550781 104.519531 39.386719 C 104.898438 39.21875 105.339844 39.390625 105.507812 39.769531 L 112.371094 55.386719 L 104.949219 56.703125 C 104.90625 56.710938 104.863281 56.714844 104.820312 56.714844" fill="#1b3c60"/></g><g id="change1_7"><path d="M 109.539062 66.210938 C 103.808594 66.210938 101.777344 60.390625 101.757812 60.328125 L 101.476562 59.492188 L 109.175781 58.226562 L 107.980469 55.59375 C 107.808594 55.214844 107.976562 54.769531 108.355469 54.597656 C 108.730469 54.429688 109.175781 54.59375 109.347656 54.972656 L 111.347656 59.390625 L 103.539062 60.671875 C 104.285156 62.148438 106.265625 65.039062 110.195312 64.683594 C 110.605469 64.648438 110.972656 64.949219 111.007812 65.363281 C 111.046875 65.773438 110.742188 66.140625 110.328125 66.175781 C 110.058594 66.199219 109.796875 66.210938 109.539062 66.210938" fill="#1b3c60"/></g><g id="change1_8"><path d="M 212.480469 62.785156 C 212.4375 62.785156 212.394531 62.78125 212.347656 62.773438 L 204.929688 61.457031 L 211.792969 45.839844 C 211.960938 45.460938 212.402344 45.289062 212.78125 45.453125 C 213.160156 45.621094 213.332031 46.0625 213.164062 46.445312 L 207.070312 60.3125 L 212.609375 61.296875 C 213.019531 61.367188 213.289062 61.757812 213.21875 62.164062 C 213.152344 62.527344 212.835938 62.785156 212.480469 62.785156" fill="#1b3c60"/></g><g id="change1_9"><path d="M 207.761719 72.28125 C 207.503906 72.28125 207.242188 72.269531 206.972656 72.246094 C 206.558594 72.210938 206.253906 71.84375 206.289062 71.433594 C 206.328125 71.019531 206.691406 70.714844 207.105469 70.753906 C 211.058594 71.101562 213.015625 68.21875 213.761719 66.742188 L 205.949219 65.460938 L 207.953125 61.042969 C 208.125 60.664062 208.570312 60.5 208.945312 60.671875 C 209.324219 60.839844 209.492188 61.285156 209.320312 61.660156 L 208.125 64.296875 L 215.824219 65.5625 L 215.542969 66.398438 C 215.519531 66.460938 213.488281 72.28125 207.761719 72.28125" fill="#1b3c60"/></g><g id="change1_10"><path d="M 35.617188 272.894531 C 35.511719 272.894531 35.398438 272.871094 35.296875 272.820312 C 34.921875 272.640625 34.761719 272.195312 34.941406 271.820312 L 64.226562 210.480469 L 32.367188 196.382812 C 31.992188 196.214844 31.820312 195.773438 31.988281 195.394531 C 32.15625 195.015625 32.59375 194.84375 32.976562 195.011719 L 66.246094 209.734375 L 36.296875 272.46875 C 36.167969 272.738281 35.898438 272.894531 35.617188 272.894531" fill="#1b3c60"/></g><g id="change1_11"><path d="M 44.054688 200.820312 C 43.917969 200.820312 43.777344 200.78125 43.648438 200.699219 C 43.300781 200.476562 43.203125 200.011719 43.425781 199.664062 L 67.039062 163.210938 C 67.265625 162.863281 67.730469 162.765625 68.074219 162.988281 C 68.421875 163.214844 68.523438 163.679688 68.296875 164.027344 L 44.6875 200.480469 C 44.542969 200.699219 44.300781 200.820312 44.054688 200.820312" fill="#1b3c60"/></g><g id="change1_12"><path d="M 261.390625 144.640625 C 261.390625 144.640625 261.898438 154.722656 264.199219 172.089844 L 300.65625 192.679688 L 261.390625 144.640625" fill="#1b3c60"/></g><g id="change1_13"><path d="M 153.085938 198.417969 L 173.996094 175.816406 L 172.628906 188.984375 Z M 153.085938 198.417969" fill="#1b3c60"/></g><g id="change1_14"><path d="M 153.125 200.023438 C 152.746094 200.023438 152.421875 199.738281 152.378906 199.351562 L 147.992188 157.398438 L 173.101562 127.421875 C 173.367188 127.101562 173.839844 127.0625 174.15625 127.328125 C 174.472656 127.59375 174.515625 128.066406 174.25 128.382812 L 149.550781 157.878906 L 153.871094 199.195312 C 153.914062 199.605469 153.613281 199.976562 153.203125 200.019531 C 153.175781 200.023438 153.148438 200.023438 153.125 200.023438" fill="#1b3c60"/></g><g id="change1_15"><path d="M 31.535156 257.050781 C 31.417969 257.050781 31.300781 257.027344 31.191406 256.96875 C 30.824219 256.78125 30.679688 256.328125 30.871094 255.960938 L 56.503906 206.191406 C 56.691406 205.824219 57.144531 205.679688 57.511719 205.871094 C 57.882812 206.058594 58.027344 206.511719 57.835938 206.878906 L 32.203125 256.644531 C 32.070312 256.902344 31.808594 257.050781 31.535156 257.050781" fill="#1b3c60"/></g><g id="change1_16"><path d="M 98.867188 226.585938 C 89.707031 226.585938 79.683594 225.453125 79.5625 225.441406 C 79.152344 225.394531 78.855469 225.023438 78.902344 224.609375 C 78.949219 224.199219 79.316406 223.90625 79.734375 223.949219 C 79.875 223.96875 93.925781 225.554688 103.84375 224.949219 C 104.265625 224.921875 104.613281 225.238281 104.636719 225.652344 C 104.664062 226.066406 104.347656 226.421875 103.933594 226.445312 C 102.324219 226.542969 100.613281 226.585938 98.867188 226.585938" fill="#1b3c60"/></g><g id="change1_17"><path d="M 111.425781 237.589844 C 111.421875 237.589844 111.421875 237.589844 111.417969 237.589844 C 99.519531 237.464844 85.289062 235.714844 85.144531 235.699219 C 84.734375 235.648438 84.441406 235.273438 84.492188 234.863281 C 84.542969 234.453125 84.917969 234.15625 85.332031 234.210938 C 85.472656 234.226562 99.621094 235.964844 111.433594 236.089844 C 111.847656 236.097656 112.179688 236.433594 112.175781 236.847656 C 112.171875 237.261719 111.835938 237.589844 111.425781 237.589844" fill="#1b3c60"/></g><g id="change1_18"><path d="M 109.246094 248.25 C 109.21875 248.25 109.1875 248.246094 109.15625 248.242188 L 85.148438 245.289062 C 84.734375 245.238281 84.445312 244.863281 84.492188 244.453125 C 84.542969 244.042969 84.917969 243.746094 85.332031 243.800781 L 109.339844 246.753906 C 109.75 246.804688 110.042969 247.179688 109.992188 247.589844 C 109.945312 247.96875 109.621094 248.25 109.246094 248.25" fill="#1b3c60"/></g><g id="change1_19"><path d="M 101.238281 255.757812 C 101.183594 255.757812 101.128906 255.753906 101.074219 255.738281 L 81.992188 251.414062 C 81.589844 251.320312 81.335938 250.917969 81.429688 250.515625 C 81.519531 250.113281 81.917969 249.859375 82.328125 249.949219 L 101.40625 254.277344 C 101.808594 254.367188 102.0625 254.769531 101.96875 255.171875 C 101.890625 255.519531 101.582031 255.757812 101.238281 255.757812" fill="#1b3c60"/></g><g id="change1_20"><path d="M 75.4375 63.910156 C 75.144531 63.910156 74.863281 63.734375 74.746094 63.449219 C 72.390625 57.808594 65.035156 56.695312 64.960938 56.683594 C 64.550781 56.625 64.269531 56.246094 64.324219 55.835938 C 64.382812 55.425781 64.765625 55.140625 65.171875 55.199219 C 65.507812 55.246094 73.445312 56.4375 76.128906 62.871094 C 76.289062 63.253906 76.109375 63.691406 75.726562 63.851562 C 75.632812 63.890625 75.535156 63.910156 75.4375 63.910156" fill="#1b3c60"/></g><g id="change1_21"><path d="M 65.070312 66.808594 C 65.042969 66.808594 65.019531 66.808594 64.992188 66.804688 C 64.582031 66.765625 64.28125 66.398438 64.320312 65.984375 C 64.355469 65.652344 65.179688 57.867188 70.121094 56.996094 C 70.53125 56.925781 70.917969 57.195312 70.992188 57.605469 C 71.0625 58.015625 70.789062 58.402344 70.382812 58.476562 C 66.546875 59.152344 65.820312 66.0625 65.816406 66.132812 C 65.777344 66.519531 65.449219 66.808594 65.070312 66.808594" fill="#1b3c60"/></g><g id="change1_22"><path d="M 242.449219 63.261719 C 242.355469 63.261719 242.257812 63.242188 242.160156 63.203125 C 241.777344 63.042969 241.597656 62.605469 241.757812 62.222656 C 243.984375 56.890625 250.546875 55.90625 250.824219 55.867188 C 251.222656 55.8125 251.609375 56.09375 251.671875 56.503906 C 251.730469 56.914062 251.441406 57.292969 251.03125 57.351562 C 250.972656 57.359375 245.035156 58.261719 243.144531 62.800781 C 243.023438 63.085938 242.742188 63.261719 242.449219 63.261719" fill="#1b3c60"/></g><g id="change1_23"><path d="M 250.925781 65.628906 C 250.546875 65.628906 250.222656 65.34375 250.183594 64.953125 C 250.175781 64.898438 249.585938 59.347656 246.558594 58.816406 C 246.148438 58.742188 245.878906 58.355469 245.949219 57.945312 C 246.019531 57.539062 246.410156 57.269531 246.816406 57.339844 C 250.960938 58.070312 251.648438 64.53125 251.675781 64.808594 C 251.714844 65.21875 251.414062 65.585938 251.003906 65.628906 C 250.976562 65.628906 250.953125 65.628906 250.925781 65.628906" fill="#1b3c60"/></g><g id="change1_24"><path d="M 101.058594 49.925781 C 100.710938 49.925781 100.398438 49.683594 100.324219 49.328125 L 99.910156 47.320312 C 99.828125 46.914062 100.089844 46.519531 100.496094 46.433594 C 100.894531 46.355469 101.296875 46.613281 101.382812 47.019531 L 101.792969 49.023438 C 101.875 49.429688 101.613281 49.828125 101.210938 49.910156 C 101.160156 49.921875 101.109375 49.925781 101.058594 49.925781" fill="#1b3c60"/></g><g id="change4_2"><path d="M 99.015625 54.832031 C 99.21875 56.386719 97.863281 57.84375 95.980469 58.09375 C 94.101562 58.34375 92.414062 57.285156 92.207031 55.730469 C 92.003906 54.179688 93.359375 52.71875 95.238281 52.472656 C 97.117188 52.222656 98.808594 53.28125 99.015625 54.832031" fill="#ffffff"/></g><g id="change1_25"><path d="M 95.867188 44.652344 C 95.800781 44.652344 95.738281 44.644531 95.671875 44.628906 C 95.273438 44.519531 95.039062 44.117188 95.140625 43.71875 C 95.167969 43.613281 95.855469 41.117188 98.964844 40.3125 C 99.367188 40.210938 99.777344 40.449219 99.878906 40.851562 C 99.984375 41.253906 99.742188 41.660156 99.34375 41.765625 C 97.109375 42.34375 96.609375 44.03125 96.589844 44.105469 C 96.496094 44.433594 96.195312 44.652344 95.867188 44.652344" fill="#1b3c60"/></g><g id="change4_3"><path d="M 223.460938 61.488281 C 222.949219 62.96875 221.085938 63.671875 219.292969 63.054688 C 217.5 62.4375 216.460938 60.738281 216.96875 59.257812 C 217.476562 57.773438 219.34375 57.074219 221.136719 57.691406 C 222.929688 58.308594 223.96875 60.007812 223.460938 61.488281" fill="#ffffff"/></g><g id="change1_26"><path d="M 217.621094 53.515625 C 217.570312 53.515625 217.519531 53.511719 217.46875 53.5 C 217.0625 53.417969 216.800781 53.023438 216.886719 52.617188 L 217.296875 50.609375 C 217.378906 50.203125 217.773438 49.945312 218.179688 50.023438 C 218.585938 50.109375 218.847656 50.503906 218.765625 50.910156 L 218.355469 52.917969 C 218.28125 53.273438 217.96875 53.515625 217.621094 53.515625" fill="#1b3c60"/></g><g id="change1_27"><path d="M 204.828125 51.03125 C 204.777344 51.03125 204.726562 51.027344 204.675781 51.015625 C 204.269531 50.933594 204.007812 50.535156 204.09375 50.132812 L 204.503906 48.125 C 204.589844 47.71875 204.976562 47.460938 205.390625 47.539062 C 205.796875 47.625 206.058594 48.019531 205.972656 48.425781 L 205.5625 50.433594 C 205.488281 50.789062 205.175781 51.03125 204.828125 51.03125" fill="#1b3c60"/></g><g id="change1_28"><path d="M 222.808594 48.246094 C 222.476562 48.246094 222.175781 48.027344 222.085938 47.695312 C 222.0625 47.609375 221.558594 45.929688 219.335938 45.355469 C 218.933594 45.253906 218.691406 44.84375 218.796875 44.441406 C 218.902344 44.039062 219.3125 43.800781 219.710938 43.902344 C 222.820312 44.710938 223.507812 47.203125 223.535156 47.308594 C 223.640625 47.710938 223.398438 48.117188 223 48.222656 C 222.9375 48.238281 222.871094 48.246094 222.808594 48.246094" fill="#1b3c60"/></g><g id="change1_29"><path d="M 113.03125 47.476562 C 112.683594 47.476562 112.371094 47.234375 112.296875 46.878906 L 111.886719 44.871094 C 111.800781 44.464844 112.0625 44.070312 112.46875 43.984375 C 112.871094 43.902344 113.269531 44.164062 113.355469 44.570312 L 113.765625 46.574219 C 113.851562 46.980469 113.589844 47.378906 113.183594 47.460938 C 113.132812 47.472656 113.082031 47.476562 113.03125 47.476562" fill="#1b3c60"/></g><g id="change1_30"><path d="M 70.949219 50.566406 C 70.949219 50.566406 90.945312 46.605469 100.019531 24.792969 C 100.019531 24.792969 105.109375 31.585938 113.03125 34.921875 L 113.925781 25.964844 L 86.992188 14.691406 L 65.066406 24.941406 L 70.949219 50.566406" fill="#1b3c60"/></g><g id="change1_31"><path d="M 70.949219 50.566406 C 70.949219 50.566406 76.371094 51.660156 78.625 55.964844 C 78.625 55.964844 80.882812 48.144531 88.824219 40.832031 C 96.765625 33.519531 82.496094 37.199219 82.496094 37.199219 L 70.949219 50.566406" fill="#1b3c60"/></g><g id="change1_32"><path d="M 203.226562 39.242188 C 203.226562 39.242188 210.933594 40.601562 219.523438 28.800781 C 219.523438 28.800781 225.691406 43.824219 239.683594 52.765625 C 239.683594 52.765625 242.34375 49.460938 246.6875 49.277344 L 252.96875 38.285156 L 236 22.433594 L 206 21.457031 L 203.226562 39.242188" fill="#1b3c60"/></g><g id="change4_4"><path d="M 116.296875 50.652344 C 116.394531 51.398438 115.746094 52.09375 114.847656 52.214844 C 113.949219 52.332031 113.140625 51.828125 113.039062 51.085938 C 112.941406 50.34375 113.59375 49.644531 114.492188 49.523438 C 115.390625 49.40625 116.199219 49.910156 116.296875 50.652344" fill="#ffffff"/></g><g id="change4_5"><path d="M 200.714844 54.660156 C 200.597656 55.550781 201.375 56.390625 202.453125 56.53125 C 203.527344 56.675781 204.496094 56.066406 204.613281 55.179688 C 204.734375 54.289062 203.953125 53.449219 202.878906 53.308594 C 201.800781 53.164062 200.832031 53.773438 200.714844 54.660156" fill="#ffffff"/></g><g id="change1_33"><path d="M 98.265625 83.535156 C 96.148438 83.535156 93.773438 83.242188 91.492188 82.339844 C 91.105469 82.1875 90.917969 81.75 91.070312 81.367188 C 91.222656 80.980469 91.660156 80.789062 92.042969 80.945312 C 97.828125 83.238281 104.570312 81.167969 104.640625 81.144531 C 105.035156 81.023438 105.457031 81.238281 105.578125 81.636719 C 105.703125 82.03125 105.484375 82.449219 105.089844 82.574219 C 104.902344 82.636719 101.984375 83.535156 98.265625 83.535156" fill="#1b3c60"/></g><g id="change1_34"><path d="M 216.527344 87.195312 C 214.410156 87.195312 212.035156 86.902344 209.753906 86 C 209.367188 85.847656 209.179688 85.410156 209.332031 85.027344 C 209.484375 84.640625 209.921875 84.453125 210.308594 84.605469 C 216.105469 86.902344 222.832031 84.828125 222.898438 84.804688 C 223.296875 84.679688 223.71875 84.898438 223.839844 85.296875 C 223.964844 85.691406 223.746094 86.109375 223.351562 86.234375 C 223.164062 86.296875 220.246094 87.195312 216.527344 87.195312" fill="#1b3c60"/></g><g id="change1_35"><path d="M 235.800781 81.601562 C 235.800781 81.601562 238.234375 95 248.332031 96.15625 C 258.429688 97.316406 261.390625 84.066406 261.390625 84.066406 L 235.800781 81.601562" fill="#1b3c60"/></g></g></svg>