<?xml version="1.0" encoding="UTF-8" standalone="no"?><svg xmlns="http://www.w3.org/2000/svg" xmlns:xlink="http://www.w3.org/1999/xlink" fill="#000000" height="480" preserveAspectRatio="xMidYMid meet" version="1" viewBox="15.6 16.0 480.7 480.0" width="480.7" zoomAndPan="magnify"><linearGradient gradientUnits="userSpaceOnUse" id="a" x1="54.487" x2="457.513" xlink:actuate="onLoad" xlink:show="other" xlink:type="simple" y1="487.388" y2="84.361"><stop offset="0" stop-color="#5ebce5"/><stop offset="0.513" stop-color="#e9a1d7"/><stop offset="1" stop-color="#e45b78"/></linearGradient><path d="M27.748,375.739c-2.573,0.624-5.178,0.125-7.337-1.408s-3.488-3.829-3.744-6.465l-0.625-6.439 c-0.404-4.171,2.154-8.085,6.11-9.403l17.897-4.011l0.061,24.72L27.748,375.739z M192,48.345C192,30.51,206.51,16,224.344,16h95.652 c-0.303,22.108-18.382,40-40.561,40H192V48.345z M208,93.32V72h71.435c8.798,0,17.132-2.02,24.565-5.619V93.32 c0,28.647-17.014,54.45-43.346,65.734l0,0.001c-2.958,1.268-6.35,1.269-9.308-0.001C225.014,147.771,208,121.968,208,93.32z M280,166.807V176c0,13.233-10.767,24-24,24s-24-10.767-24-24v-9.194c4.101,2.647,8.451,4.987,13.042,6.955 c3.482,1.493,7.22,2.239,10.958,2.239c3.737,0,7.476-0.746,10.957-2.238C271.548,171.794,275.899,169.454,280,166.807z M266.274,496 H224v-35.01l44.626,7.761c6.59,1.146,11.374,6.833,11.374,13.522C280,489.843,273.842,496,266.274,496z M358.358,408l90.037,38.588 c9.48,4.062,15.605,13.352,15.605,23.665C464,484.45,452.45,496,438.253,496h-43.682H292.628c2.149-4.109,3.372-8.777,3.372-13.727 c0-8.21-3.33-15.722-8.811-21.143l82.182-14.293c4.353-0.757,7.268-4.899,6.511-9.253c-0.757-4.353-4.905-7.264-9.252-6.511 L256,450.315l-110.629-19.24c-4.359-0.754-8.495,2.158-9.252,6.511c-0.757,4.354,2.158,8.496,6.511,9.253L208,458.207V496h-90.571 H73.747C59.55,496,48,484.45,48,470.253c0-10.313,6.125-19.603,15.605-23.665L153.642,408H358.358z M455.891,372.188l-52.728-21.127 c-8.832-3.539-16.399-9.977-21.31-18.127l-28.227-46.851c-1.738-2.885-5.097-4.377-8.399-3.721c-3.304,0.65-5.846,3.301-6.36,6.628 l-5.514,35.72c-3.559,23.053-0.172,46.255,9.759,67.29H168.887c9.931-21.035,13.318-44.235,9.759-67.29l-5.514-35.72 c-0.514-3.327-3.056-5.978-6.36-6.628c-3.303-0.654-6.661,0.836-8.399,3.721l-28.227,46.851c-4.911,8.15-12.479,14.588-21.31,18.127 l-52.728,21.127l-0.096-38.874l33.97-14.254c13.624-5.717,24.619-16.214,30.962-29.558l31.525-66.329 c1.908-4.069,4.356-7.862,7.276-11.273c6.234-7.281,14.382-12.585,23.561-15.339l34.057-10.217C221.935,203.4,237.521,216,256,216 c18.48,0,34.065-12.6,38.636-29.657l34.057,10.216c9.18,2.755,17.327,8.059,23.561,15.34c2.921,3.411,5.369,7.204,7.294,11.312 l31.508,66.291c6.342,13.344,17.338,23.841,30.961,29.558l33.97,14.254L455.891,372.188z M495.958,361.427l-0.625,6.439 c-0.256,2.636-1.585,4.932-3.744,6.465s-4.765,2.033-7.337,1.408l-12.363-3.007l0.061-24.72l17.897,4.011 C493.803,353.342,496.362,357.256,495.958,361.427z M432,58.848c6.015,8.01,13.142,15.137,21.15,21.152 c-8.008,6.015-15.135,13.142-21.15,21.152c-6.015-8.01-13.142-15.137-21.15-21.152C418.858,73.985,425.985,66.858,432,58.848z M368,130.848c6.015,8.01,13.142,15.137,21.15,21.152c-8.008,6.015-15.135,13.142-21.15,21.152 c-6.015-8.01-13.142-15.137-21.15-21.152C354.858,145.985,361.985,138.858,368,130.848z M448,245.152 c-6.015-8.01-13.142-15.137-21.15-21.152c8.008-6.015,15.135-13.142,21.15-21.152c6.015,8.01,13.142,15.137,21.15,21.152 C461.142,230.015,454.015,237.142,448,245.152z M80,58.848c6.015,8.01,13.142,15.137,21.15,21.152 C93.142,86.015,86.015,93.142,80,101.152C73.985,93.142,66.858,86.015,58.85,80C66.858,73.985,73.985,66.858,80,58.848z M144,130.848c6.015,8.01,13.142,15.137,21.15,21.152c-8.008,6.015-15.135,13.142-21.15,21.152 c-6.015-8.01-13.142-15.137-21.15-21.152C130.858,145.985,137.985,138.858,144,130.848z M64,202.848 c6.015,8.01,13.142,15.137,21.15,21.152c-8.008,6.015-15.135,13.142-21.15,21.152c-6.015-8.01-13.142-15.137-21.15-21.152 C50.858,217.985,57.985,210.858,64,202.848z" fill="url(#a)"/></svg>