
<svg xmlns="http://www.w3.org/2000/svg" xmlns:xlink="http://www.w3.org/1999/xlink" preserveAspectRatio="xMidYMid meet" version="1.0" viewBox="519.9 561.4 960.3 875.2" zoomAndPan="magnify" style="fill: rgb(0, 0, 0);" original_string_length="42026"><g id="__id108_sbtau1ptls"><path d="M 667.488281 1257.609375 C 680.171875 1257.609375 690.320312 1267.761719 690.320312 1280.441406 C 690.320312 1293.011719 680.171875 1303.28125 667.488281 1303.28125 C 654.925781 1303.28125 644.777344 1293.011719 644.777344 1280.441406 C 644.777344 1267.761719 654.925781 1257.609375 667.488281 1257.609375 Z M 883.359375 1159.640625 C 896.046875 1159.640625 906.191406 1169.910156 906.191406 1182.480469 C 906.191406 1195.039062 896.046875 1205.308594 883.359375 1205.308594 C 870.796875 1205.308594 860.648438 1195.039062 860.648438 1182.480469 C 860.648438 1169.910156 870.796875 1159.640625 883.359375 1159.640625 Z M 836.367188 1290.710938 C 848.933594 1290.710938 859.199219 1300.859375 859.199219 1313.539062 C 859.199219 1326.109375 848.933594 1336.25 836.367188 1336.25 C 823.804688 1336.25 813.539062 1326.109375 813.539062 1313.539062 C 813.539062 1300.859375 823.804688 1290.710938 836.367188 1290.710938 Z M 673.648438 1167.378906 C 686.335938 1167.378906 696.480469 1177.519531 696.480469 1190.089844 C 696.480469 1202.769531 686.335938 1212.921875 673.648438 1212.921875 C 661.085938 1212.921875 650.9375 1202.769531 650.9375 1190.089844 C 650.9375 1177.519531 661.085938 1167.378906 673.648438 1167.378906 Z M 687.058594 963.101562 C 699.621094 963.101562 709.769531 973.371094 709.769531 985.929688 C 709.769531 998.488281 699.621094 1008.761719 687.058594 1008.761719 C 674.375 1008.761719 664.226562 998.488281 664.226562 985.929688 C 664.226562 973.371094 674.375 963.101562 687.058594 963.101562 Z M 817.039062 1067.960938 C 829.605469 1067.960938 839.871094 1078.21875 839.871094 1090.789062 C 839.871094 1103.351562 829.605469 1113.621094 817.039062 1113.621094 C 804.476562 1113.621094 794.210938 1103.351562 794.210938 1090.789062 C 794.210938 1078.21875 804.476562 1067.960938 817.039062 1067.960938 Z M 895.078125 848.339844 C 907.640625 848.339844 917.910156 858.488281 917.910156 871.050781 C 917.910156 883.730469 907.640625 893.878906 895.078125 893.878906 C 882.394531 893.878906 872.246094 883.730469 872.246094 871.050781 C 872.246094 858.488281 882.394531 848.339844 895.078125 848.339844 Z M 788.050781 844.960938 C 800.730469 844.960938 810.878906 855.21875 810.878906 867.789062 C 810.878906 880.351562 800.730469 890.621094 788.050781 890.621094 C 775.484375 890.621094 765.339844 880.351562 765.339844 867.789062 C 765.339844 855.21875 775.484375 844.960938 788.050781 844.960938 Z M 751.6875 748.679688 C 764.25 748.679688 774.519531 758.828125 774.519531 771.511719 C 774.519531 784.070312 764.25 794.339844 751.6875 794.339844 C 739.125 794.339844 728.855469 784.070312 728.855469 771.511719 C 728.855469 758.828125 739.125 748.679688 751.6875 748.679688 Z M 860.289062 691.539062 C 872.972656 691.539062 883.117188 701.691406 883.117188 714.371094 C 883.117188 726.929688 872.972656 737.078125 860.289062 737.078125 C 847.726562 737.078125 837.457031 726.929688 837.457031 714.371094 C 837.457031 701.691406 847.726562 691.539062 860.289062 691.539062 Z M 781.644531 764.140625 C 780.921875 761.121094 779.714844 758.21875 778.144531 755.558594 C 795.78125 745.300781 813.539062 734.910156 831.175781 724.519531 C 832.261719 727.421875 833.710938 730.199219 835.523438 732.609375 C 817.523438 743.121094 799.644531 753.628906 781.644531 764.140625 Z M 864.152344 871.050781 C 849.054688 870.320312 834.074219 869.480469 818.972656 868.761719 C 818.972656 868.390625 818.972656 868.148438 818.972656 867.789062 C 818.972656 865.011719 818.609375 862.230469 817.765625 859.449219 C 833.710938 860.300781 849.65625 861.140625 865.601562 861.871094 C 864.636719 864.890625 864.152344 867.910156 864.152344 871.050781 Z M 854.007812 1288.179688 C 851.347656 1286.359375 848.570312 1285.039062 845.671875 1284.070312 C 853.765625 1259.429688 861.859375 1234.898438 869.953125 1210.261719 C 872.730469 1211.589844 875.75 1212.550781 878.769531 1213.039062 C 870.554688 1238.039062 862.222656 1263.050781 854.007812 1288.179688 Z M 831.898438 1117.851562 C 834.558594 1116.28125 837.09375 1114.460938 839.269531 1112.171875 C 848.933594 1126.671875 858.71875 1141.039062 868.503906 1155.539062 C 865.84375 1156.988281 863.308594 1158.921875 861.132812 1161.089844 C 851.46875 1146.71875 841.683594 1132.21875 831.898438 1117.851562 Z M 695.996094 1211.46875 C 698.050781 1209.289062 699.863281 1206.761719 701.3125 1203.980469 C 739.003906 1233.210938 776.8125 1262.449219 814.625 1291.558594 C 812.449219 1293.730469 810.640625 1296.269531 809.1875 1298.929688 C 771.378906 1269.808594 733.6875 1240.699219 695.996094 1211.46875 Z M 678.480469 1159.640625 C 687.179688 1137.050781 695.996094 1114.578125 704.816406 1092 L 704.9375 1091.75 L 704.816406 1091.390625 C 699.019531 1066.511719 693.097656 1041.621094 687.300781 1016.738281 C 690.320312 1016.738281 693.460938 1016.25 696.359375 1015.289062 C 702.28125 1040.53125 708.320312 1065.78125 714.238281 1091.03125 C 714.480469 1091.871094 714.359375 1092.839844 713.996094 1093.691406 C 705.058594 1116.640625 696.117188 1139.46875 687.179688 1162.421875 C 684.402344 1161.089844 681.503906 1160.128906 678.480469 1159.640625 Z M 790.707031 1106.730469 C 792.277344 1109.390625 794.210938 1111.808594 796.625 1113.859375 C 764.613281 1134.28125 732.601562 1154.691406 700.589844 1175.109375 C 699.140625 1172.328125 697.207031 1169.910156 695.03125 1167.859375 C 726.921875 1147.441406 758.8125 1127.148438 790.707031 1106.730469 Z M 756.640625 801.949219 C 759.660156 801.46875 762.679688 800.5 765.460938 799.050781 C 771.015625 811.859375 776.570312 824.660156 782.25 837.46875 C 779.230469 838.070312 776.210938 839.160156 773.554688 840.609375 C 767.875 827.679688 762.195312 814.878906 756.640625 801.949219 Z M 696.238281 1289.5 C 697.085938 1286.609375 697.566406 1283.460938 697.566406 1280.441406 L 806.773438 1304.730469 C 805.925781 1307.5 805.5625 1310.519531 805.5625 1313.539062 C 805.5625 1313.539062 805.5625 1313.671875 805.5625 1313.789062 Z M 741.902344 800.738281 C 712.667969 850.761719 683.433594 900.890625 654.199219 950.898438 L 653.839844 951.738281 L 654.441406 952.351562 C 658.429688 955.851562 662.414062 959.480469 666.402344 962.980469 C 664.105469 965.03125 662.054688 967.449219 660.480469 970.109375 C 657.101562 966.96875 653.597656 963.820312 650.09375 960.808594 L 649.007812 959.839844 L 648.28125 961.050781 C 645.746094 965.519531 643.085938 969.988281 640.429688 974.578125 C 616.511719 1025.070312 592.59375 1075.449219 568.796875 1125.941406 L 568.433594 1126.539062 L 568.914062 1127.03125 C 580.390625 1143.578125 591.867188 1160.128906 603.464844 1176.679688 L 603.707031 1177.160156 L 604.3125 1177.160156 C 617.597656 1178.25 631.007812 1179.460938 644.414062 1180.539062 C 643.449219 1183.558594 642.847656 1186.578125 642.847656 1189.71875 C 632.941406 1188.878906 622.914062 1188.03125 613.007812 1187.191406 L 610.59375 1186.941406 L 656.253906 1252.539062 C 653.355469 1253.75 650.699219 1255.320312 648.28125 1257.25 L 598.632812 1185.980469 L 598.148438 1185.859375 C 595.855469 1185.738281 593.558594 1185.5 591.265625 1185.25 L 590.417969 1185.25 L 590.054688 1185.980469 C 580.027344 1212.550781 577.128906 1241.429688 582.929688 1269.328125 C 587.277344 1290.589844 596.578125 1310.519531 610.230469 1327.441406 C 614.820312 1333.109375 619.652344 1338.308594 625.089844 1343.140625 L 626.054688 1344.109375 L 649.007812 1304.121094 C 651.421875 1306.050781 654.199219 1307.5 657.101562 1308.589844 L 633.304688 1349.910156 L 634.148438 1350.511719 C 642.726562 1356.910156 652.027344 1362.351562 661.8125 1366.578125 C 691.285156 1379.140625 723.78125 1380.710938 754.949219 1374.191406 C 756.398438 1373.941406 757.847656 1374.308594 758.9375 1375.269531 C 789.980469 1403.78125 827.792969 1426.859375 871.039062 1427.339844 C 884.6875 1427.460938 898.097656 1425.410156 911.023438 1421.421875 L 912.59375 1420.941406 L 911.628906 1419.609375 C 891.574219 1393.148438 871.644531 1366.699219 851.710938 1340.238281 C 854.367188 1338.671875 856.785156 1336.738281 858.960938 1334.558594 C 879.617188 1361.988281 900.394531 1389.53125 921.171875 1416.949219 L 921.652344 1417.671875 L 922.5 1417.308594 C 942.914062 1409.21875 961.640625 1397.019531 978.550781 1383 L 978.914062 1382.640625 L 978.914062 1382.160156 C 978.914062 1321.398438 978.914062 1260.628906 978.914062 1199.988281 L 978.914062 1198.898438 L 977.949219 1198.78125 C 956.082031 1196.730469 934.339844 1194.679688 912.59375 1192.621094 C 913.5625 1189.71875 914.164062 1186.699219 914.285156 1183.558594 C 935.425781 1185.621094 956.566406 1187.550781 977.707031 1189.601562 L 978.914062 1189.71875 L 978.914062 1188.390625 C 978.914062 1166.289062 978.914062 1144.300781 978.914062 1122.199219 L 978.914062 1119.050781 L 976.859375 1121.46875 C 976.015625 1122.558594 974.566406 1123.160156 973.117188 1123.039062 C 935.183594 1120.75 897.253906 1118.570312 859.199219 1116.28125 C 857.390625 1116.160156 855.816406 1114.949219 855.214844 1113.261719 C 852.675781 1106.488281 850.261719 1099.730469 847.84375 1092.960938 C 847.84375 1092.238281 847.84375 1091.511719 847.84375 1090.789062 C 847.84375 1082.691406 844.824219 1075.078125 839.148438 1069.28125 C 838.785156 1068.199219 838.300781 1066.988281 837.9375 1065.78125 L 836.851562 1062.878906 L 835.765625 1065.78125 C 835.644531 1065.898438 835.644531 1066.019531 835.644531 1066.140625 C 833.105469 1064.328125 830.328125 1062.761719 827.429688 1061.789062 C 828.878906 1057.808594 830.328125 1053.941406 831.777344 1049.960938 L 832.019531 1049.589844 L 831.777344 1049.230469 C 827.550781 1037.390625 823.203125 1025.679688 818.972656 1013.960938 L 818.851562 1013.71875 L 818.730469 1013.601562 C 799.644531 991.609375 780.679688 969.5 761.59375 947.519531 L 760.988281 946.789062 L 760.144531 947.269531 C 759.175781 947.761719 758.332031 948.238281 757.484375 948.851562 L 757.125 948.96875 L 757.003906 949.328125 C 752.050781 961.171875 747.097656 972.878906 742.265625 984.601562 L 742.023438 985.210938 L 742.386719 985.808594 C 762.679688 1011.539062 782.855469 1037.390625 803.148438 1063.238281 C 800.371094 1064.570312 797.835938 1066.390625 795.660156 1068.558594 C 774.761719 1041.980469 753.863281 1015.410156 733.085938 988.828125 C 731.996094 987.5 731.753906 985.570312 732.480469 984 C 735.863281 975.910156 739.246094 967.808594 742.628906 959.71875 L 743.957031 956.578125 L 740.9375 958.390625 C 732.359375 963.339844 723.78125 968.289062 715.207031 973.25 C 713.878906 970.46875 712.1875 967.808594 710.132812 965.519531 C 723.300781 958.03125 736.347656 950.421875 749.511719 942.808594 L 749.753906 942.558594 L 749.996094 942.199219 C 756.761719 925.890625 763.644531 909.460938 770.410156 893.160156 C 772.949219 894.851562 775.726562 896.300781 778.746094 897.261719 C 773.433594 909.828125 768.238281 922.511719 762.921875 935.070312 L 762.4375 936.160156 L 763.527344 936.640625 C 764.371094 936.890625 764.976562 937.371094 765.460938 937.96875 L 765.578125 938.089844 C 785.875 961.53125 806.167969 984.960938 826.34375 1008.398438 C 826.824219 1008.761719 827.066406 1009.25 827.1875 1009.851562 C 830.085938 1017.699219 832.984375 1025.550781 835.886719 1033.410156 L 836.851562 1036.308594 L 837.9375 1033.410156 C 847.964844 1006.46875 857.992188 979.53125 868.019531 952.589844 L 868.261719 951.871094 L 867.777344 951.378906 C 848.085938 931.089844 828.515625 910.789062 808.945312 890.621094 C 811.242188 888.441406 813.175781 886.03125 814.746094 883.371094 C 835.28125 904.628906 855.816406 925.769531 876.355469 947.03125 L 876.476562 947.160156 L 876.597656 947.160156 C 906.554688 966.359375 936.511719 985.570312 966.472656 1004.78125 L 970.339844 1007.308594 L 968.042969 1003.210938 C 948.351562 968.421875 928.539062 933.621094 908.730469 898.710938 C 911.507812 897.378906 914.042969 895.570312 916.339844 893.398438 C 936.511719 928.910156 956.566406 964.429688 976.738281 999.941406 L 978.914062 1003.808594 L 978.914062 999.460938 C 978.914062 960.558594 978.914062 921.539062 978.914062 882.648438 L 978.914062 881.679688 L 977.949219 881.558594 C 960.433594 879.628906 943.035156 877.691406 925.519531 875.878906 C 925.761719 874.308594 925.882812 872.621094 925.882812 871.050781 C 925.882812 869.601562 925.761719 868.03125 925.519531 866.578125 C 936.996094 867.789062 948.472656 869.121094 959.949219 870.320312 L 964.78125 870.808594 L 960.675781 868.269531 C 934.097656 851 907.519531 833.71875 880.945312 816.570312 L 880.824219 816.570312 L 880.824219 816.449219 C 879.617188 815.839844 878.890625 814.761719 878.527344 813.429688 C 873.574219 790.601562 868.742188 767.761719 863.789062 744.929688 C 866.8125 744.570312 869.832031 743.851562 872.609375 742.640625 C 877.441406 764.738281 882.273438 786.96875 887.105469 809.199219 L 887.226562 809.679688 L 887.589844 809.921875 C 917.425781 829.25 947.265625 848.578125 977.101562 867.910156 L 978.914062 869.121094 L 978.914062 866.941406 C 978.914062 802.800781 978.914062 738.53125 978.914062 674.390625 L 978.914062 672.691406 L 977.34375 673.300781 C 948.230469 684.289062 919.238281 695.28125 890.125 706.28125 C 889.28125 703.261719 888.070312 700.480469 886.382812 697.820312 C 916.941406 686.21875 947.628906 674.75 978.1875 663.148438 L 978.914062 662.910156 L 978.914062 662.058594 C 978.914062 647.449219 978.914062 632.710938 978.914062 618.089844 L 978.914062 617.730469 L 978.671875 617.371094 C 962.003906 594.539062 939.050781 579.441406 911.144531 574.480469 C 890.609375 570.738281 869.105469 572.910156 849.296875 579.558594 C 841.804688 582.089844 834.558594 585.230469 827.671875 589.101562 L 826.824219 589.578125 L 827.066406 590.429688 C 837.09375 621.46875 847 652.519531 857.027344 683.691406 C 854.007812 683.929688 850.984375 684.769531 848.085938 685.980469 C 839.390625 658.800781 830.691406 631.738281 821.992188 604.558594 L 820.90625 601.421875 L 819.820312 604.558594 C 802.304688 651.308594 784.785156 698.058594 767.269531 744.808594 C 764.613281 743.238281 761.714844 742.160156 758.695312 741.429688 C 775.96875 695.53125 793.121094 649.621094 810.277344 603.839844 L 811.847656 599.488281 L 808.464844 602.511719 C 806.046875 604.679688 803.753906 606.859375 801.578125 609.269531 C 791.550781 620.148438 784.0625 634.28125 785.148438 649.5 C 785.390625 652.039062 783.457031 654.210938 780.921875 654.449219 C 780.316406 654.449219 779.59375 654.328125 779.109375 654.210938 L 778.988281 654.089844 C 772.707031 652.519531 765.339844 653.488281 759.175781 654.941406 C 742.746094 658.800781 726.5625 668.46875 713.996094 679.578125 L 713.273438 680.058594 L 713.636719 680.910156 C 713.757812 681.148438 713.878906 681.390625 713.996094 681.761719 C 722.9375 702.050781 731.753906 722.339844 740.695312 742.640625 C 737.675781 743.851562 734.894531 745.421875 732.359375 747.46875 C 723.902344 727.78125 715.445312 708.089844 706.871094 688.519531 L 706.265625 686.828125 L 705.058594 688.160156 C 692.011719 701.929688 682.46875 718.480469 677.515625 736.839844 C 671.960938 756.890625 672.441406 777.671875 677.273438 797.839844 C 677.878906 800.261719 676.308594 802.800781 673.890625 803.398438 C 673.648438 803.398438 673.527344 803.519531 673.289062 803.519531 L 673.167969 803.519531 C 658.550781 806.179688 643.933594 810.171875 630.28125 816.089844 C 609.625 824.898438 591.503906 838.429688 581.359375 859.089844 C 577.976562 866.101562 575.679688 873.589844 574.351562 881.320312 L 574.109375 882.648438 L 575.4375 882.648438 C 576.40625 882.769531 577.492188 883.128906 578.21875 883.859375 C 600.808594 904.03125 623.277344 924.199219 645.746094 944.5 L 646.832031 945.460938 L 647.558594 944.261719 C 676.1875 894.96875 704.9375 845.800781 733.6875 796.519531 C 736.105469 798.328125 738.882812 799.78125 741.902344 800.738281 Z M 588.605469 1171.480469 C 578.820312 1157.46875 569.15625 1143.578125 559.371094 1129.558594 C 558.40625 1128.109375 558.285156 1126.300781 559.132812 1124.730469 C 583.53125 1073.269531 607.8125 1021.929688 632.214844 970.46875 C 632.335938 970.351562 632.335938 970.230469 632.457031 969.988281 C 635.476562 964.789062 638.496094 959.601562 641.636719 954.398438 L 642.121094 953.558594 L 641.394531 952.949219 C 619.167969 933.019531 597.0625 913.089844 574.835938 893.160156 L 573.023438 891.460938 L 572.902344 893.878906 C 572.296875 904.871094 573.386719 915.988281 575.316406 926.738281 C 578.941406 946.429688 585.828125 965.878906 593.679688 984.121094 C 594.644531 986.289062 593.800781 988.828125 591.746094 989.921875 L 591.746094 990.039062 C 580.511719 997.171875 570.363281 1005.980469 561.667969 1016.011719 C 546.929688 1032.921875 536.179688 1053.578125 532.917969 1075.929688 C 529.292969 1100.328125 535.210938 1123.648438 548.5 1144.300781 C 555.746094 1155.539062 564.808594 1165.558594 574.714844 1174.378906 L 575.074219 1174.621094 L 575.4375 1174.738281 C 578.21875 1174.988281 580.996094 1175.230469 583.773438 1175.351562 L 584.5 1175.46875 L 584.859375 1174.988281 C 585.585938 1174.019531 586.671875 1173.421875 587.761719 1173.289062 L 589.691406 1173.050781 Z M 978.429688 1023.378906 C 944.605469 1001.761719 910.902344 980.128906 877.078125 958.511719 L 875.871094 957.660156 L 875.386719 958.988281 C 864.273438 989.070312 853.039062 1019.148438 841.925781 1049.230469 L 841.804688 1049.589844 L 841.925781 1049.960938 C 848.8125 1068.800781 855.695312 1087.769531 862.582031 1106.609375 L 862.824219 1107.339844 L 863.550781 1107.339844 C 900.273438 1109.511719 936.996094 1111.691406 973.597656 1113.859375 C 974.929688 1113.980469 976.136719 1114.578125 976.859375 1115.550781 L 978.914062 1117.96875 L 978.914062 1114.828125 C 978.914062 1084.628906 978.914062 1054.550781 978.914062 1024.351562 L 978.914062 1023.738281 Z M 573.988281 1183.800781 L 572.78125 1183.679688 C 571.8125 1183.558594 570.96875 1183.199219 570.121094 1182.601562 C 559.011719 1172.808594 548.742188 1161.820312 540.769531 1149.25 C 526.273438 1126.671875 519.871094 1101.300781 523.734375 1074.601562 C 527.359375 1050.558594 538.835938 1028.328125 554.660156 1010.089844 C 562.996094 1000.550781 572.539062 991.96875 582.929688 984.71875 L 583.652344 984.238281 L 583.289062 983.390625 C 576.042969 965.761719 569.761719 947.269531 566.378906 928.429688 C 561.910156 904.03125 562.03125 877.808594 573.144531 855.101562 C 584.257812 832.390625 603.828125 817.410156 626.65625 807.511719 C 639.34375 802.070312 652.75 798.328125 666.160156 795.550781 L 667.246094 795.308594 L 667.007812 794.21875 C 663.140625 774.289062 663.261719 753.988281 668.695312 734.421875 C 674.980469 711.109375 688.144531 690.570312 705.902344 674.390625 C 720.039062 661.578125 738.398438 650.46875 757.125 646 C 762.800781 644.671875 768.839844 643.820312 774.761719 644.191406 L 775.847656 644.308594 L 775.96875 643.21875 C 776.933594 627.878906 784.546875 614.109375 794.8125 602.988281 C 801.699219 595.378906 810.035156 588.980469 818.730469 583.660156 C 818.851562 583.539062 818.972656 583.539062 819.09375 583.421875 C 827.671875 578.230469 836.972656 574 846.394531 570.859375 C 867.65625 563.730469 890.730469 561.441406 912.714844 565.421875 C 943.519531 570.980469 968.765625 587.769531 986.886719 613.140625 L 987.007812 613.140625 L 987.007812 613.261719 C 987.730469 614.109375 988.214844 615.191406 988.214844 616.28125 C 988.214844 632.828125 988.214844 649.5 988.214844 666.050781 C 988.214844 736.601562 988.214844 807.019531 988.214844 877.570312 C 988.214844 1046.210938 988.214844 1214.96875 988.214844 1383.609375 L 988.097656 1383.609375 L 988.097656 1384.820312 C 988.097656 1386.148438 987.492188 1387.46875 986.523438 1388.320312 C 967.316406 1404.511719 945.695312 1418.640625 922.015625 1427.339844 L 921.894531 1427.339844 L 921.894531 1427.460938 C 921.773438 1427.460938 921.535156 1427.578125 921.414062 1427.578125 L 921.292969 1427.578125 C 905.105469 1433.5 888.191406 1436.640625 871.039062 1436.519531 C 826.34375 1436.039062 787.324219 1413.210938 754.828125 1384.089844 L 754.464844 1383.730469 L 753.863281 1383.730469 C 721.730469 1390.011719 688.507812 1387.960938 658.308594 1375.03125 C 636.683594 1365.730469 617.839844 1351.480469 603.101562 1333.230469 C 588.484375 1315.238281 578.578125 1293.851562 573.867188 1271.140625 C 567.949219 1242.628906 570.605469 1213.160156 580.390625 1185.859375 L 580.875 1184.410156 L 579.425781 1184.289062 C 577.613281 1184.171875 575.800781 1183.921875 573.988281 1183.800781 Z M 1332.5 1257.609375 C 1345.058594 1257.609375 1355.328125 1267.761719 1355.328125 1280.441406 C 1355.328125 1293.011719 1345.058594 1303.28125 1332.5 1303.28125 C 1319.941406 1303.28125 1309.671875 1293.011719 1309.671875 1280.441406 C 1309.671875 1267.761719 1319.941406 1257.609375 1332.5 1257.609375 Z M 1116.628906 1159.640625 C 1129.191406 1159.640625 1139.460938 1169.910156 1139.460938 1182.480469 C 1139.460938 1195.039062 1129.191406 1205.308594 1116.628906 1205.308594 C 1104.058594 1205.308594 1093.800781 1195.039062 1093.800781 1182.480469 C 1093.800781 1169.910156 1104.058594 1159.640625 1116.628906 1159.640625 Z M 1163.621094 1290.710938 C 1176.300781 1290.710938 1186.449219 1300.859375 1186.449219 1313.539062 C 1186.449219 1326.109375 1176.300781 1336.25 1163.621094 1336.25 C 1151.058594 1336.25 1140.910156 1326.109375 1140.910156 1313.539062 C 1140.910156 1300.859375 1151.058594 1290.710938 1163.621094 1290.710938 Z M 1326.339844 1167.378906 C 1338.898438 1167.378906 1349.171875 1177.519531 1349.171875 1190.089844 C 1349.171875 1202.769531 1338.898438 1212.921875 1326.339844 1212.921875 C 1313.78125 1212.921875 1303.511719 1202.769531 1303.511719 1190.089844 C 1303.511719 1177.519531 1313.78125 1167.378906 1326.339844 1167.378906 Z M 1313.050781 963.101562 C 1325.609375 963.101562 1335.878906 973.371094 1335.878906 985.929688 C 1335.878906 998.488281 1325.609375 1008.761719 1313.050781 1008.761719 C 1300.371094 1008.761719 1290.21875 998.488281 1290.21875 985.929688 C 1290.21875 973.371094 1300.371094 963.101562 1313.050781 963.101562 Z M 1183.070312 1067.960938 C 1195.628906 1067.960938 1205.78125 1078.21875 1205.78125 1090.789062 C 1205.78125 1103.351562 1195.628906 1113.621094 1183.070312 1113.621094 C 1170.378906 1113.621094 1160.238281 1103.351562 1160.238281 1090.789062 C 1160.238281 1078.21875 1170.378906 1067.960938 1183.070312 1067.960938 Z M 1105.03125 848.339844 C 1117.589844 848.339844 1127.738281 858.488281 1127.738281 871.050781 C 1127.738281 883.730469 1117.589844 893.878906 1105.03125 893.878906 C 1092.351562 893.878906 1082.199219 883.730469 1082.199219 871.050781 C 1082.199219 858.488281 1092.351562 848.339844 1105.03125 848.339844 Z M 1211.941406 844.960938 C 1224.5 844.960938 1234.769531 855.21875 1234.769531 867.789062 C 1234.769531 880.351562 1224.5 890.621094 1211.941406 890.621094 C 1199.378906 890.621094 1189.109375 880.351562 1189.109375 867.789062 C 1189.109375 855.21875 1199.378906 844.960938 1211.941406 844.960938 Z M 1248.421875 748.679688 C 1260.980469 748.679688 1271.128906 758.828125 1271.128906 771.511719 C 1271.128906 784.070312 1260.980469 794.339844 1248.421875 794.339844 C 1235.738281 794.339844 1225.589844 784.070312 1225.589844 771.511719 C 1225.589844 758.828125 1235.738281 748.679688 1248.421875 748.679688 Z M 1139.699219 691.539062 C 1152.261719 691.539062 1162.53125 701.691406 1162.53125 714.371094 C 1162.53125 726.929688 1152.261719 737.078125 1139.699219 737.078125 C 1127.140625 737.078125 1116.871094 726.929688 1116.871094 714.371094 C 1116.871094 701.691406 1127.140625 691.539062 1139.699219 691.539062 Z M 1218.339844 764.140625 C 1219.070312 761.121094 1220.269531 758.21875 1221.96875 755.558594 C 1204.210938 745.300781 1186.570312 734.910156 1168.808594 724.519531 C 1167.851562 727.421875 1166.398438 730.199219 1164.589844 732.609375 C 1182.460938 743.121094 1200.460938 753.628906 1218.339844 764.140625 Z M 1135.828125 871.050781 C 1150.929688 870.320312 1166.039062 869.480469 1181.140625 868.761719 C 1181.140625 868.390625 1181.140625 868.148438 1181.140625 867.789062 C 1181.140625 865.011719 1181.5 862.230469 1182.21875 859.449219 C 1166.28125 860.300781 1150.328125 861.140625 1134.390625 861.871094 C 1135.351562 864.890625 1135.828125 867.910156 1135.828125 871.050781 Z M 1146.101562 1288.179688 C 1148.640625 1286.359375 1151.421875 1285.039062 1154.441406 1284.070312 C 1146.339844 1259.429688 1138.128906 1234.898438 1130.039062 1210.261719 C 1127.261719 1211.589844 1124.359375 1212.550781 1121.21875 1213.039062 C 1129.550781 1238.039062 1137.769531 1263.050781 1146.101562 1288.179688 Z M 1168.089844 1117.851562 C 1165.429688 1116.28125 1162.890625 1114.460938 1160.839844 1112.171875 C 1151.058594 1126.671875 1141.269531 1141.039062 1131.488281 1155.539062 C 1134.261719 1156.988281 1136.679688 1158.921875 1138.851562 1161.089844 C 1148.640625 1146.71875 1158.421875 1132.21875 1168.089844 1117.851562 Z M 1304.109375 1211.46875 C 1301.941406 1209.289062 1300.121094 1206.761719 1298.800781 1203.980469 C 1260.980469 1233.210938 1223.171875 1262.449219 1185.359375 1291.558594 C 1187.539062 1293.730469 1189.46875 1296.269531 1190.921875 1298.929688 C 1228.609375 1269.808594 1266.300781 1240.699219 1304.109375 1211.46875 Z M 1321.628906 1159.640625 C 1312.808594 1137.050781 1303.988281 1114.578125 1295.171875 1092 L 1295.050781 1091.75 L 1295.171875 1091.390625 C 1301.089844 1066.511719 1306.890625 1041.621094 1312.808594 1016.738281 C 1309.671875 1016.738281 1306.648438 1016.25 1303.628906 1015.289062 C 1297.710938 1040.53125 1291.789062 1065.78125 1285.871094 1091.03125 C 1285.628906 1091.871094 1285.628906 1092.839844 1285.988281 1093.691406 C 1294.929688 1116.640625 1303.871094 1139.46875 1312.808594 1162.421875 C 1315.589844 1161.089844 1318.609375 1160.128906 1321.628906 1159.640625 Z M 1209.398438 1106.730469 C 1207.828125 1109.390625 1205.78125 1111.808594 1203.480469 1113.859375 C 1235.378906 1134.28125 1267.390625 1154.691406 1299.398438 1175.109375 C 1300.96875 1172.328125 1302.78125 1169.910156 1305.078125 1167.859375 C 1273.191406 1147.441406 1241.289062 1127.148438 1209.398438 1106.730469 Z M 1243.46875 801.949219 C 1240.328125 801.46875 1237.429688 800.5 1234.648438 799.050781 C 1228.96875 811.859375 1223.421875 824.660156 1217.859375 837.46875 C 1220.878906 838.070312 1223.78125 839.160156 1226.558594 840.609375 C 1232.109375 827.679688 1237.789062 814.878906 1243.46875 801.949219 Z M 1303.871094 1289.5 C 1302.898438 1286.609375 1302.421875 1283.460938 1302.421875 1280.441406 L 1193.21875 1304.730469 C 1194.058594 1307.5 1194.539062 1310.519531 1194.539062 1313.539062 C 1194.539062 1313.539062 1194.539062 1313.671875 1194.539062 1313.789062 Z M 1258.210938 800.738281 C 1287.441406 850.761719 1316.550781 900.890625 1345.789062 950.898438 L 1346.269531 951.738281 L 1345.550781 952.351562 C 1341.558594 955.851562 1337.570312 959.480469 1333.710938 962.980469 C 1336 965.03125 1337.941406 967.449219 1339.511719 970.109375 C 1343.011719 966.96875 1346.511719 963.820312 1349.890625 960.808594 L 1350.980469 959.839844 L 1351.710938 961.050781 C 1354.359375 965.519531 1356.898438 969.988281 1359.558594 974.578125 C 1383.480469 1025.070312 1407.398438 1075.449219 1431.308594 1125.941406 L 1431.558594 1126.539062 L 1431.191406 1127.03125 C 1419.601562 1143.578125 1408.121094 1160.128906 1396.640625 1176.679688 L 1396.28125 1177.160156 L 1395.800781 1177.160156 C 1382.390625 1178.25 1368.980469 1179.460938 1355.691406 1180.539062 C 1356.660156 1183.558594 1357.140625 1186.578125 1357.140625 1189.71875 C 1367.171875 1188.878906 1377.070312 1188.03125 1386.980469 1187.191406 L 1389.519531 1186.941406 L 1343.730469 1252.539062 C 1346.628906 1253.75 1349.289062 1255.320312 1351.710938 1257.25 L 1401.359375 1185.980469 L 1401.960938 1185.859375 C 1404.25 1185.738281 1406.429688 1185.5 1408.71875 1185.25 L 1409.570312 1185.25 L 1409.929688 1185.980469 C 1419.960938 1212.550781 1422.980469 1241.429688 1417.179688 1269.328125 C 1412.710938 1290.589844 1403.410156 1310.519531 1389.761719 1327.441406 C 1385.289062 1333.109375 1380.339844 1338.308594 1375.019531 1343.140625 L 1373.929688 1344.109375 L 1350.980469 1304.121094 C 1348.570312 1306.050781 1345.910156 1307.5 1343.011719 1308.589844 L 1366.691406 1349.910156 L 1365.960938 1350.511719 C 1357.378906 1356.910156 1347.960938 1362.351562 1338.179688 1366.578125 C 1308.699219 1379.140625 1276.210938 1380.710938 1245.160156 1374.191406 C 1243.710938 1373.941406 1242.140625 1374.308594 1241.050781 1375.269531 C 1210.128906 1403.78125 1172.199219 1426.859375 1128.949219 1427.339844 C 1115.421875 1427.460938 1102.011719 1425.410156 1089.078125 1421.421875 L 1087.511719 1420.941406 L 1088.480469 1419.609375 C 1108.410156 1393.148438 1128.351562 1366.699219 1148.28125 1340.238281 C 1145.621094 1338.671875 1143.199219 1336.738281 1141.148438 1334.558594 C 1120.371094 1361.988281 1099.589844 1389.53125 1078.941406 1416.949219 L 1078.328125 1417.671875 L 1077.488281 1417.308594 C 1057.191406 1409.21875 1038.351562 1397.019531 1021.558594 1383 L 1021.070312 1382.640625 L 1021.070312 1382.160156 C 1021.070312 1321.398438 1021.070312 1260.628906 1021.070312 1199.988281 L 1021.070312 1198.898438 L 1022.160156 1198.78125 C 1043.910156 1196.730469 1065.648438 1194.679688 1087.511719 1192.621094 C 1086.429688 1189.71875 1085.941406 1186.699219 1085.820312 1183.558594 C 1064.679688 1185.621094 1043.539062 1187.550781 1022.398438 1189.601562 L 1021.070312 1189.71875 L 1021.070312 1188.390625 C 1021.070312 1166.289062 1021.070312 1144.300781 1021.070312 1122.199219 L 1021.070312 1119.050781 L 1023.128906 1121.46875 C 1024.089844 1122.558594 1025.421875 1123.160156 1026.871094 1123.039062 C 1064.921875 1120.75 1102.859375 1118.570312 1140.789062 1116.28125 C 1142.601562 1116.160156 1144.171875 1114.949219 1144.769531 1113.261719 C 1147.308594 1106.488281 1149.730469 1099.730469 1152.261719 1092.960938 C 1152.140625 1092.238281 1152.140625 1091.511719 1152.140625 1090.789062 C 1152.140625 1082.691406 1155.28125 1075.078125 1160.839844 1069.28125 C 1161.320312 1068.199219 1161.691406 1066.988281 1162.171875 1065.78125 L 1163.261719 1062.878906 L 1164.339844 1065.78125 C 1164.339844 1065.898438 1164.339844 1066.019531 1164.460938 1066.140625 C 1166.878906 1064.328125 1169.660156 1062.761719 1172.558594 1061.789062 C 1171.109375 1057.808594 1169.660156 1053.941406 1168.210938 1049.960938 L 1168.089844 1049.589844 L 1168.210938 1049.230469 C 1172.441406 1037.390625 1176.789062 1025.679688 1181.011719 1013.960938 L 1181.140625 1013.71875 L 1181.261719 1013.601562 C 1200.339844 991.609375 1219.429688 969.5 1238.519531 947.519531 L 1239.121094 946.789062 L 1239.96875 947.269531 C 1240.808594 947.761719 1241.660156 948.238281 1242.621094 948.851562 L 1242.988281 948.96875 L 1243.109375 949.328125 C 1247.941406 961.171875 1252.890625 972.878906 1257.839844 984.601562 L 1258.089844 985.210938 L 1257.601562 985.808594 C 1237.429688 1011.539062 1217.128906 1037.390625 1196.839844 1063.238281 C 1199.621094 1064.570312 1202.148438 1066.390625 1204.449219 1068.558594 C 1225.230469 1041.980469 1246.128906 1015.410156 1267.019531 988.828125 C 1267.988281 987.5 1268.230469 985.570312 1267.511719 984 C 1264.128906 975.910156 1260.738281 967.808594 1257.359375 959.71875 L 1256.03125 956.578125 L 1259.050781 958.390625 C 1267.628906 963.339844 1276.210938 968.289062 1284.898438 973.25 C 1286.109375 970.46875 1287.800781 967.808594 1289.859375 965.519531 C 1276.808594 958.03125 1263.640625 950.421875 1250.601562 942.808594 L 1250.230469 942.558594 L 1250.109375 942.199219 C 1243.230469 925.890625 1236.460938 909.460938 1229.578125 893.160156 C 1227.039062 894.851562 1224.261719 896.300781 1221.359375 897.261719 C 1226.558594 909.828125 1231.871094 922.511719 1237.070312 935.070312 L 1237.550781 936.160156 L 1236.460938 936.640625 C 1235.738281 936.890625 1235.011719 937.371094 1234.53125 937.96875 L 1234.53125 938.089844 C 1214.230469 961.53125 1193.941406 984.960938 1173.648438 1008.398438 C 1173.28125 1008.761719 1173.039062 1009.25 1172.800781 1009.851562 C 1169.898438 1017.699219 1167.121094 1025.550781 1164.21875 1033.410156 L 1163.140625 1036.308594 L 1162.050781 1033.410156 C 1152.019531 1006.46875 1142 979.53125 1131.96875 952.589844 L 1131.730469 951.871094 L 1132.328125 951.378906 C 1151.898438 931.089844 1171.46875 910.789062 1191.160156 890.621094 C 1188.871094 888.441406 1186.929688 886.03125 1185.359375 883.371094 C 1164.710938 904.628906 1144.171875 925.769531 1123.628906 947.03125 L 1123.511719 947.160156 L 1123.390625 947.160156 C 1093.429688 966.359375 1063.480469 985.570312 1033.640625 1004.78125 L 1029.648438 1007.308594 L 1031.949219 1003.210938 C 1051.761719 968.421875 1071.570312 933.621094 1091.261719 898.710938 C 1088.480469 897.378906 1085.941406 895.570312 1083.769531 893.398438 C 1063.601562 928.910156 1043.421875 964.429688 1023.25 999.941406 L 1021.070312 1003.808594 L 1021.070312 999.460938 C 1021.070312 960.558594 1021.070312 921.539062 1021.070312 882.648438 L 1021.070312 881.679688 L 1022.160156 881.558594 C 1039.558594 879.628906 1057.070312 877.691406 1074.46875 875.878906 C 1074.230469 874.308594 1074.109375 872.621094 1074.109375 871.050781 C 1074.109375 869.601562 1074.230469 868.03125 1074.46875 866.578125 C 1062.988281 867.789062 1051.519531 869.121094 1040.039062 870.320312 L 1035.210938 870.808594 L 1039.308594 868.269531 C 1065.890625 851 1092.589844 833.71875 1119.160156 816.570312 L 1119.160156 816.449219 C 1120.371094 815.839844 1121.21875 814.761719 1121.460938 813.429688 C 1126.410156 790.601562 1131.371094 767.761719 1136.320312 744.929688 C 1133.179688 744.570312 1130.160156 743.851562 1127.378906 742.640625 C 1122.550781 764.738281 1117.710938 786.96875 1113 809.199219 L 1112.878906 809.679688 L 1112.519531 809.921875 C 1082.558594 829.25 1052.71875 848.578125 1022.890625 867.910156 L 1021.070312 869.121094 L 1021.070312 866.941406 C 1021.070312 802.800781 1021.070312 738.53125 1021.070312 674.390625 L 1021.070312 672.691406 L 1022.640625 673.300781 C 1051.761719 684.289062 1080.871094 695.28125 1109.980469 706.28125 C 1110.710938 703.261719 1112.039062 700.480469 1113.609375 697.820312 C 1083.039062 686.21875 1052.480469 674.75 1021.800781 663.148438 L 1021.070312 662.910156 L 1021.070312 662.058594 C 1021.070312 647.449219 1021.070312 632.710938 1021.070312 618.089844 L 1021.070312 617.730469 L 1021.320312 617.371094 C 1037.988281 594.539062 1061.058594 579.441406 1088.960938 574.480469 C 1109.5 570.738281 1131 572.910156 1150.691406 579.558594 C 1158.179688 582.089844 1165.550781 585.230469 1172.441406 589.101562 L 1173.28125 589.578125 L 1172.921875 590.429688 C 1163.019531 621.46875 1152.988281 652.519531 1142.960938 683.691406 C 1146.101562 683.929688 1149.121094 684.769531 1151.898438 685.980469 C 1160.601562 658.800781 1169.300781 631.738281 1178.121094 604.558594 L 1179.078125 601.421875 L 1180.289062 604.558594 C 1197.808594 651.308594 1215.320312 698.058594 1232.71875 744.808594 C 1235.378906 743.238281 1238.269531 742.160156 1241.289062 741.429688 C 1224.140625 695.53125 1206.988281 649.621094 1189.710938 603.839844 L 1188.140625 599.488281 L 1191.640625 602.511719 C 1193.941406 604.679688 1196.359375 606.859375 1198.410156 609.269531 C 1208.558594 620.148438 1216.050781 634.28125 1214.839844 649.5 C 1214.71875 652.039062 1216.648438 654.210938 1219.070312 654.449219 C 1219.789062 654.449219 1220.398438 654.328125 1221 654.210938 L 1221 654.089844 L 1221.121094 654.089844 C 1227.28125 652.519531 1234.648438 653.488281 1240.808594 654.941406 C 1257.238281 658.800781 1273.429688 668.46875 1286.109375 679.578125 L 1286.71875 680.058594 L 1286.351562 680.910156 C 1286.230469 681.148438 1286.109375 681.390625 1285.988281 681.761719 C 1277.171875 702.050781 1268.230469 722.339844 1259.289062 742.640625 C 1262.308594 743.851562 1265.210938 745.421875 1267.628906 747.46875 C 1276.210938 727.78125 1284.660156 708.089844 1293.121094 688.519531 L 1293.839844 686.828125 L 1295.050781 688.160156 C 1307.980469 701.929688 1317.519531 718.480469 1322.589844 736.839844 C 1328.03125 756.890625 1327.550781 777.671875 1322.710938 797.839844 C 1322.109375 800.261719 1323.679688 802.800781 1326.21875 803.398438 C 1326.339844 803.398438 1326.578125 803.519531 1326.699219 803.519531 L 1326.820312 803.519531 C 1341.441406 806.179688 1356.058594 810.171875 1369.710938 816.089844 C 1390.359375 824.898438 1408.480469 838.429688 1418.628906 859.089844 C 1422.011719 866.101562 1424.429688 873.589844 1425.761719 881.320312 L 1426 882.648438 L 1424.671875 882.648438 C 1423.578125 882.769531 1422.621094 883.128906 1421.769531 883.859375 C 1399.300781 904.03125 1376.828125 924.199219 1354.238281 944.5 L 1353.28125 945.460938 L 1352.550781 944.261719 C 1323.800781 894.96875 1295.050781 845.800781 1266.421875 796.519531 C 1263.878906 798.328125 1261.109375 799.78125 1258.210938 800.738281 Z M 1411.5 1171.480469 C 1421.171875 1157.46875 1430.949219 1143.578125 1440.621094 1129.558594 C 1441.578125 1128.109375 1441.699219 1126.300781 1440.859375 1124.730469 C 1416.578125 1073.269531 1392.171875 1021.929688 1367.769531 970.46875 C 1367.769531 970.351562 1367.648438 970.230469 1367.53125 969.988281 C 1364.511719 964.789062 1361.488281 959.601562 1358.46875 954.398438 L 1357.988281 953.558594 L 1358.710938 952.949219 C 1380.820312 933.019531 1403.050781 913.089844 1425.148438 893.160156 L 1426.96875 891.460938 L 1427.089844 893.878906 C 1427.691406 904.871094 1426.601562 915.988281 1424.671875 926.738281 C 1421.050781 946.429688 1414.28125 965.878906 1406.308594 984.121094 C 1405.460938 986.289062 1406.308594 988.828125 1408.238281 989.921875 L 1408.359375 990.039062 C 1419.480469 997.171875 1429.738281 1005.980469 1438.441406 1016.011719 C 1453.058594 1032.921875 1463.808594 1053.578125 1467.070312 1075.929688 C 1470.699219 1100.328125 1464.78125 1123.648438 1451.609375 1144.300781 C 1444.359375 1155.539062 1435.300781 1165.558594 1425.269531 1174.378906 L 1425.03125 1174.621094 L 1424.550781 1174.738281 C 1421.769531 1174.988281 1418.988281 1175.230469 1416.210938 1175.351562 L 1415.609375 1175.46875 L 1415.25 1174.988281 C 1414.519531 1174.019531 1413.441406 1173.421875 1412.230469 1173.289062 L 1410.421875 1173.050781 Z M 1021.679688 1023.378906 C 1055.378906 1001.761719 1089.210938 980.128906 1122.910156 958.511719 L 1124.121094 957.660156 L 1124.601562 958.988281 C 1135.828125 989.070312 1146.949219 1019.148438 1158.179688 1049.230469 L 1158.300781 1049.589844 L 1158.179688 1049.960938 C 1151.300781 1068.800781 1144.410156 1087.769531 1137.53125 1106.609375 L 1137.28125 1107.339844 L 1136.441406 1107.339844 C 1099.839844 1109.511719 1063.109375 1111.691406 1026.390625 1113.859375 C 1025.058594 1113.980469 1023.96875 1114.578125 1023.128906 1115.550781 L 1021.070312 1117.96875 L 1021.070312 1114.828125 C 1021.070312 1084.628906 1021.070312 1054.550781 1021.070312 1024.351562 L 1021.070312 1023.738281 Z M 1426.121094 1183.800781 L 1427.210938 1183.679688 C 1428.171875 1183.558594 1429.140625 1183.199219 1429.871094 1182.601562 C 1441.101562 1172.808594 1451.25 1161.820312 1459.339844 1149.25 C 1473.839844 1126.671875 1480.121094 1101.300781 1476.25 1074.601562 C 1472.75 1050.558594 1461.148438 1028.328125 1445.328125 1010.089844 C 1437.109375 1000.550781 1427.570312 991.96875 1417.058594 984.71875 L 1416.328125 984.238281 L 1416.699219 983.390625 C 1424.070312 965.761719 1430.230469 947.269531 1433.730469 928.429688 C 1438.199219 904.03125 1437.960938 877.808594 1426.839844 855.101562 C 1415.730469 832.390625 1396.160156 817.410156 1373.328125 807.511719 C 1360.769531 802.070312 1347.359375 798.328125 1333.828125 795.550781 L 1332.738281 795.308594 L 1332.980469 794.21875 C 1336.96875 774.289062 1336.730469 753.988281 1331.410156 734.421875 C 1325.011719 711.109375 1311.839844 690.570312 1294.078125 674.390625 C 1280.070312 661.578125 1261.589844 650.46875 1242.988281 646 C 1237.308594 644.671875 1231.148438 643.820312 1225.351562 644.191406 L 1224.140625 644.308594 L 1224.140625 643.21875 C 1223.171875 627.878906 1215.441406 614.109375 1205.300781 602.988281 C 1198.289062 595.378906 1190.070312 588.980469 1181.261719 583.660156 C 1181.140625 583.539062 1181.140625 583.539062 1181.011719 583.421875 L 1180.890625 583.421875 C 1172.320312 578.230469 1163.140625 574 1153.589844 570.859375 C 1132.449219 563.730469 1109.378906 561.441406 1087.269531 565.421875 C 1056.46875 570.980469 1031.21875 587.769531 1013.101562 613.140625 L 1012.980469 613.261719 C 1012.261719 614.109375 1011.890625 615.191406 1011.890625 616.28125 C 1011.890625 632.828125 1011.890625 649.5 1011.890625 666.050781 C 1011.890625 736.601562 1011.890625 807.019531 1011.890625 877.570312 C 1011.890625 1046.210938 1011.890625 1214.96875 1011.890625 1383.609375 L 1011.890625 1384.820312 C 1011.890625 1386.148438 1012.5 1387.46875 1013.578125 1388.320312 C 1032.789062 1404.511719 1054.421875 1418.640625 1078.089844 1427.339844 L 1078.089844 1427.460938 C 1078.328125 1427.460938 1078.449219 1427.578125 1078.699219 1427.578125 C 1094.878906 1433.5 1111.800781 1436.640625 1129.070312 1436.519531 C 1173.769531 1436.039062 1212.789062 1413.210938 1245.160156 1384.089844 L 1245.640625 1383.730469 L 1246.128906 1383.730469 C 1278.261719 1390.011719 1311.480469 1387.960938 1341.800781 1375.03125 C 1363.300781 1365.730469 1382.269531 1351.480469 1396.890625 1333.230469 C 1411.5 1315.238281 1421.410156 1293.851562 1426.121094 1271.140625 C 1432.039062 1242.628906 1429.5 1213.160156 1419.71875 1185.859375 L 1419.109375 1184.410156 L 1420.679688 1184.289062 C 1422.5 1184.171875 1424.308594 1183.921875 1426.121094 1183.800781" style="fill: rgb(3, 152, 158);"/></g></svg>