<?xml version="1.0" encoding="UTF-8"?><svg xmlns="http://www.w3.org/2000/svg" xmlns:xlink="http://www.w3.org/1999/xlink" data-name="Capa 1" height="1523.1" preserveAspectRatio="xMidYMid meet" version="1.0" viewBox="-29.3 -1.5 1616.6 1523.1" width="1616.6" zoomAndPan="magnify"><g id="change1_1"><path d="M306,17.06c-87.09,22-171,74.2-209.44,155.37C55.79,258.48,72,359.23,63,454,55.2,536.7,27.76,616.18,12.81,697.87-29.34,928.25,34,1175.8,181.55,1357.66c71.16,87.7,170.62,164,283.56,164,149.65-.06,271.54-131.35,420.45-146.22,62.22-6.22,125.24,8.54,187.34,1.19,92.88-11,173.17-70,239-136.47A986.41,986.41,0,0,0,1540.45,875.6c28.74-81.42,46.77-167.88,40.48-254s-38.49-172.11-99.34-233.38c-41.48-41.78-94.07-70.43-146.12-98q-150-79.35-303.12-152.81c-69.42-33.31-141-66.18-217.63-73.55-33.82-3.25-68.44-1.5-101.21-10.5C682.22,44.82,654.69,27.1,624.82,15,593.6,2.28,563.68,2.62,530.54,1.36,455.5-1.47,379.27-1.44,306,17.06Z" fill="#f4b0cd"/></g></svg>